G04 #@! TF.FileFunction,Paste,Bot*
%FSLAX46Y46*%
G04 Gerber Fmt 4.6, Leading zero omitted, Abs format (unit mm)*
G04 Created by KiCad (PCBNEW (2015-12-03 BZR 6346, Git b04f18b)-product) date 07.01.2016 00:01:23*
%MOMM*%
G01*
G04 APERTURE LIST*
%ADD10C,0.150000*%
%ADD11R,1.800860X2.499360*%
%ADD12R,2.540000X5.588000*%
%ADD13R,2.540000X0.889000*%
%ADD14R,1.198880X1.800860*%
%ADD15R,0.797560X0.797560*%
%ADD16R,4.000000X5.000000*%
%ADD17R,1.143000X0.635000*%
%ADD18R,0.635000X1.143000*%
%ADD19R,3.657600X2.032000*%
%ADD20R,1.016000X2.032000*%
%ADD21R,2.692400X1.600200*%
%ADD22R,0.762000X0.508000*%
%ADD23R,0.508000X0.762000*%
%ADD24R,2.499360X1.800860*%
%ADD25R,10.800000X9.400000*%
%ADD26R,0.800000X4.600000*%
G04 APERTURE END LIST*
D10*
D11*
X92025000Y-122248980D03*
X92025000Y-118251020D03*
D12*
X89960000Y-109752000D03*
X95040000Y-109752000D03*
D13*
X89960000Y-113879500D03*
X95040000Y-113879500D03*
D12*
X104960000Y-109752000D03*
X110040000Y-109752000D03*
D13*
X104960000Y-113879500D03*
X110040000Y-113879500D03*
D14*
X102749680Y-139324920D03*
X100250320Y-139324920D03*
X100250320Y-135525080D03*
X102749680Y-135525080D03*
D15*
X111050000Y-138575700D03*
X111050000Y-140074300D03*
X109600000Y-138575700D03*
X109600000Y-140074300D03*
X100125000Y-142749300D03*
X100125000Y-141250700D03*
D16*
X83600000Y-111700000D03*
X100000000Y-110050000D03*
D17*
X94925000Y-136162000D03*
X94925000Y-134638000D03*
X85200000Y-139563000D03*
X85200000Y-141087000D03*
X91950000Y-138737000D03*
X91950000Y-137213000D03*
X89250000Y-138737000D03*
X89250000Y-137213000D03*
X86550000Y-138737000D03*
X86550000Y-137213000D03*
D10*
G36*
X103957567Y-134965790D02*
X104765790Y-134157567D01*
X105214803Y-134606580D01*
X104406580Y-135414803D01*
X103957567Y-134965790D01*
X103957567Y-134965790D01*
G37*
G36*
X105035197Y-136043420D02*
X105843420Y-135235197D01*
X106292433Y-135684210D01*
X105484210Y-136492433D01*
X105035197Y-136043420D01*
X105035197Y-136043420D01*
G37*
D17*
X98825000Y-138737000D03*
X98825000Y-137213000D03*
D18*
X88325000Y-134875000D03*
X86801000Y-134875000D03*
X105363000Y-139975000D03*
X106887000Y-139975000D03*
D17*
X104175000Y-138963000D03*
X104175000Y-140487000D03*
D18*
X105363000Y-138625000D03*
X106887000Y-138625000D03*
D17*
X104175000Y-136113000D03*
X104175000Y-137637000D03*
X85025000Y-114863000D03*
X85025000Y-116387000D03*
X86475000Y-114863000D03*
X86475000Y-116387000D03*
D18*
X84112000Y-136075000D03*
X82588000Y-136075000D03*
D17*
X83850000Y-141087000D03*
X83850000Y-139563000D03*
X86550000Y-141087000D03*
X86550000Y-139563000D03*
X89250000Y-141087000D03*
X89250000Y-139563000D03*
X91950000Y-141087000D03*
X91950000Y-139563000D03*
X93300000Y-141087000D03*
X93300000Y-139563000D03*
X90600000Y-141087000D03*
X90600000Y-139563000D03*
X87900000Y-141087000D03*
X87900000Y-139563000D03*
D18*
X99012000Y-142575000D03*
X97488000Y-142575000D03*
D17*
X114900000Y-125238000D03*
X114900000Y-126762000D03*
X115225000Y-129912000D03*
X115225000Y-128388000D03*
D18*
X101288000Y-120100000D03*
X102812000Y-120100000D03*
D17*
X113550000Y-125238000D03*
X113550000Y-126762000D03*
X113875000Y-129912000D03*
X113875000Y-128388000D03*
X118300000Y-105562000D03*
X118300000Y-104038000D03*
X112200000Y-125238000D03*
X112200000Y-126762000D03*
X112525000Y-129912000D03*
X112525000Y-128388000D03*
X105300000Y-105562000D03*
X105300000Y-104038000D03*
X111125000Y-137637000D03*
X111125000Y-136113000D03*
X109725000Y-137637000D03*
X109725000Y-136113000D03*
X92300000Y-105562000D03*
X92300000Y-104038000D03*
X83825000Y-127662000D03*
X83825000Y-126138000D03*
D19*
X88325000Y-132877000D03*
D20*
X88325000Y-126273000D03*
X90611000Y-126273000D03*
X86039000Y-126273000D03*
D21*
X95500000Y-119272000D03*
X95500000Y-116478000D03*
X113900000Y-117578000D03*
X113900000Y-120372000D03*
D22*
X102750000Y-131380600D03*
X102750000Y-130669400D03*
X101775000Y-131380600D03*
X101775000Y-130669400D03*
D23*
X102625000Y-123275000D03*
X103336200Y-123275000D03*
X101913800Y-123275000D03*
D18*
X101287000Y-120100000D03*
X99763000Y-120100000D03*
X90087000Y-124275000D03*
X88563000Y-124275000D03*
X105363000Y-137275000D03*
X106887000Y-137275000D03*
D23*
X92975000Y-136225000D03*
X92263800Y-136225000D03*
X93686200Y-136225000D03*
D17*
X97650000Y-114913000D03*
X97650000Y-116437000D03*
D24*
X92676020Y-125625000D03*
X96673980Y-125625000D03*
D25*
X100000000Y-95100000D03*
D26*
X103810000Y-104250000D03*
X102540000Y-104250000D03*
X101270000Y-104250000D03*
X98730000Y-104250000D03*
X97460000Y-104250000D03*
X96190000Y-104250000D03*
D25*
X87000000Y-95100000D03*
D26*
X90810000Y-104250000D03*
X89540000Y-104250000D03*
X88270000Y-104250000D03*
X85730000Y-104250000D03*
X84460000Y-104250000D03*
X83190000Y-104250000D03*
D25*
X113000000Y-95100000D03*
D26*
X116810000Y-104250000D03*
X115540000Y-104250000D03*
X114270000Y-104250000D03*
X111730000Y-104250000D03*
X110460000Y-104250000D03*
X109190000Y-104250000D03*
M02*
