M48
;DRILL file {KiCad (2015-12-03 BZR 6346, Git b04f18b)-product} date 10.01.2016 19:16:27
;FORMAT={-:-/ absolute / metric / decimal}
FMAT,2
METRIC,TZ
T1C0.400
T2C0.500
T3C0.800
T4C1.016
T5C3.000
%
G90
G05
M71
T1
X82.575Y-135.
X84.125Y-135.
X85.025Y-126.275
X85.925Y-135.95
X86.725Y-135.95
X87.075Y-125.875
X87.075Y-126.675
X87.25Y-127.625
X87.625Y-138.6
X87.75Y-123.85
X87.75Y-124.65
X88.05Y-136.45
X88.225Y-137.8
X88.8Y-121.825
X90.325Y-138.6
X90.625Y-121.725
X90.625Y-122.525
X90.7Y-134.3
X91.Y-124.1
X91.8Y-116.5
X91.925Y-127.35
X92.55Y-116.5
X92.625Y-128.1
X92.975Y-93.562
X92.975Y-102.375
X92.975Y-103.338
X92.977Y-133.126
X93.075Y-112.475
X93.1Y-137.1
X93.175Y-113.425
X93.6Y-130.325
X93.675Y-135.35
X94.15Y-120.575
X94.15Y-121.5
X94.15Y-122.25
X94.15Y-123.
X94.2Y-140.275
X94.65Y-136.975
X94.9Y-120.575
X95.1Y-117.775
X95.15Y-140.1
X95.875Y-135.35
X95.9Y-117.775
X96.125Y-130.275
X96.225Y-142.375
X96.625Y-133.6
X96.625Y-134.6
X96.625Y-137.1
X96.625Y-138.1
X96.85Y-117.875
X97.125Y-124.1
X97.425Y-129.65
X97.625Y-122.65
X97.85Y-128.8
X98.Y-122.
X98.Y-123.3
X98.375Y-122.65
X98.375Y-123.95
X98.475Y-141.45
X98.75Y-122.
X98.75Y-123.3
X98.975Y-139.85
X99.075Y-133.6
X99.075Y-134.55
X99.125Y-122.65
X99.5Y-122.
X99.5Y-123.3
X99.85Y-124.25
X99.875Y-122.65
X99.9Y-118.95
X99.925Y-134.025
X100.075Y-137.1
X100.25Y-122.
X100.25Y-123.3
X100.775Y-133.6
X100.8Y-124.25
X100.85Y-118.95
X101.25Y-126.95
X101.25Y-128.
X101.25Y-141.1
X101.5Y-135.675
X101.7Y-133.875
X101.8Y-118.95
X102.1Y-116.25
X102.175Y-140.825
X102.275Y-129.6
X102.3Y-124.25
X102.35Y-132.425
X102.7Y-133.375
X102.75Y-118.95
X102.925Y-137.75
X103.05Y-116.15
X103.1Y-141.125
X103.225Y-129.55
X103.25Y-124.25
X103.3Y-132.625
X104.Y-134.2
X104.125Y-132.1
X104.175Y-129.6
X104.3Y-118.95
X104.75Y-116.25
X104.75Y-124.25
X105.225Y-141.15
X105.25Y-118.95
X105.7Y-124.25
X105.75Y-116.25
X105.775Y-134.75
X105.975Y-93.562
X105.975Y-102.375
X105.975Y-103.338
X106.25Y-141.125
X106.65Y-124.25
X106.775Y-132.075
X106.8Y-118.95
X107.25Y-116.25
X107.55Y-133.575
X107.6Y-124.25
X107.6Y-128.075
X107.75Y-118.95
X107.8Y-137.85
X107.9Y-129.9
X108.125Y-135.1
X108.125Y-136.05
X108.125Y-142.1
X108.2Y-116.15
X108.225Y-139.85
X108.25Y-122.
X108.25Y-123.3
X108.625Y-122.65
X108.8Y-118.95
X109.Y-122.
X109.Y-123.3
X109.15Y-129.8
X109.225Y-141.075
X109.225Y-142.025
X109.275Y-124.25
X109.375Y-122.65
X109.6Y-118.95
X109.75Y-122.
X109.75Y-123.3
X110.125Y-122.65
X110.225Y-124.25
X110.3Y-142.1
X110.5Y-123.3
X110.575Y-135.125
X110.875Y-122.65
X111.175Y-130.575
X111.25Y-123.3
X111.525Y-135.125
X111.625Y-123.95
X112.05Y-139.025
X112.1Y-139.975
X112.15Y-131.625
X112.275Y-138.1
X112.525Y-127.575
X112.625Y-130.725
X112.625Y-132.625
X112.95Y-116.175
X113.05Y-118.875
X113.575Y-138.075
X113.6Y-121.675
X113.7Y-116.175
X113.85Y-118.875
X113.875Y-127.575
X114.075Y-115.525
X114.325Y-113.825
X114.4Y-121.675
X114.4Y-122.475
X114.45Y-116.175
X114.525Y-137.975
X114.75Y-112.975
X114.825Y-115.525
X115.125Y-130.725
X115.125Y-132.625
X115.225Y-127.575
X116.475Y-134.65
X118.275Y-126.225
X118.975Y-93.562
X118.975Y-102.375
X118.975Y-103.338
T2
X82.Y-109.675
X82.Y-111.025
X82.Y-112.375
X82.Y-113.725
X82.4Y-110.35
X82.4Y-111.7
X82.4Y-113.05
X82.8Y-109.675
X82.8Y-111.025
X82.8Y-112.375
X82.8Y-113.725
X83.2Y-110.35
X83.2Y-111.7
X83.2Y-113.05
X83.6Y-109.675
X83.6Y-111.025
X83.6Y-112.375
X83.6Y-113.725
X84.Y-110.35
X84.Y-111.7
X84.Y-113.05
X84.4Y-109.675
X84.4Y-111.025
X84.4Y-112.375
X84.4Y-113.725
X84.8Y-110.35
X84.8Y-111.7
X84.8Y-113.05
X85.Y-86.3
X85.Y-87.1
X85.Y-87.9
X85.Y-88.7
X85.Y-89.5
X85.2Y-109.675
X85.2Y-111.025
X85.2Y-112.375
X85.2Y-113.725
X85.8Y-86.3
X85.8Y-87.1
X85.8Y-87.9
X85.8Y-88.7
X85.8Y-89.5
X86.6Y-86.3
X86.6Y-87.1
X86.6Y-87.9
X86.6Y-88.7
X86.6Y-89.5
X87.4Y-86.3
X87.4Y-87.1
X87.4Y-87.9
X87.4Y-88.7
X87.4Y-89.5
X88.2Y-86.3
X88.2Y-87.1
X88.2Y-87.9
X88.2Y-88.7
X88.2Y-89.5
X89.Y-86.3
X89.Y-87.1
X89.Y-87.9
X89.Y-88.7
X89.Y-89.5
X98.Y-86.3
X98.Y-87.1
X98.Y-87.9
X98.Y-88.7
X98.Y-89.5
X98.4Y-108.025
X98.4Y-109.375
X98.4Y-110.725
X98.4Y-112.075
X98.8Y-86.3
X98.8Y-87.1
X98.8Y-87.9
X98.8Y-88.7
X98.8Y-89.5
X98.8Y-108.7
X98.8Y-110.05
X98.8Y-111.4
X99.2Y-108.025
X99.2Y-109.375
X99.2Y-110.725
X99.2Y-112.075
X99.6Y-86.3
X99.6Y-87.1
X99.6Y-87.9
X99.6Y-88.7
X99.6Y-89.5
X99.6Y-108.7
X99.6Y-110.05
X99.6Y-111.4
X100.Y-108.025
X100.Y-109.375
X100.Y-110.725
X100.Y-112.075
X100.4Y-86.3
X100.4Y-87.1
X100.4Y-87.9
X100.4Y-88.7
X100.4Y-89.5
X100.4Y-108.7
X100.4Y-110.05
X100.4Y-111.4
X100.8Y-108.025
X100.8Y-109.375
X100.8Y-110.725
X100.8Y-112.075
X101.2Y-86.3
X101.2Y-87.1
X101.2Y-87.9
X101.2Y-88.7
X101.2Y-89.5
X101.2Y-108.7
X101.2Y-110.05
X101.2Y-111.4
X101.6Y-108.025
X101.6Y-109.375
X101.6Y-110.725
X101.6Y-112.075
X102.Y-86.3
X102.Y-87.1
X102.Y-87.9
X102.Y-88.7
X102.Y-89.5
X111.Y-86.3
X111.Y-87.1
X111.Y-87.9
X111.Y-88.7
X111.Y-89.5
X111.8Y-86.3
X111.8Y-87.1
X111.8Y-87.9
X111.8Y-88.7
X111.8Y-89.5
X112.6Y-86.3
X112.6Y-87.1
X112.6Y-87.9
X112.6Y-88.7
X112.6Y-89.5
X113.4Y-86.3
X113.4Y-87.1
X113.4Y-87.9
X113.4Y-88.7
X113.4Y-89.5
X114.2Y-86.3
X114.2Y-87.1
X114.2Y-87.9
X114.2Y-88.7
X114.2Y-89.5
X115.Y-86.3
X115.Y-87.1
X115.Y-87.9
X115.Y-88.7
X115.Y-89.5
T3
X83.25Y-142.275
X84.25Y-118.725
X84.25Y-120.725
X84.25Y-122.725
X84.25Y-124.725
X85.25Y-142.275
X87.25Y-142.275
X89.25Y-142.275
X91.25Y-142.275
X93.25Y-142.275
X116.7Y-111.87
X116.7Y-113.87
X116.7Y-115.87
X116.7Y-117.87
X116.7Y-119.87
X116.7Y-121.87
X116.7Y-123.87
T4
X113.095Y-141.65
X115.635Y-141.65
X118.175Y-127.68
X118.175Y-130.22
X118.175Y-132.76
X118.175Y-135.3
X118.175Y-137.84
X118.175Y-141.65
T5
X84.225Y-146.9
X94.725Y-87.9
X106.225Y-87.9
X116.725Y-146.9
T0
M30
