G04 #@! TF.FileFunction,Legend,Top*
%FSLAX46Y46*%
G04 Gerber Fmt 4.6, Leading zero omitted, Abs format (unit mm)*
G04 Created by KiCad (PCBNEW (2015-12-03 BZR 6346, Git b04f18b)-product) date 10.01.2016 19:16:16*
%MOMM*%
G01*
G04 APERTURE LIST*
%ADD10C,0.150000*%
%ADD11C,0.100000*%
%ADD12C,0.200000*%
%ADD13C,0.381000*%
%ADD14C,0.127000*%
%ADD15C,0.119380*%
%ADD16C,0.066040*%
%ADD17C,0.152400*%
%ADD18C,0.099060*%
G04 APERTURE END LIST*
D10*
D11*
X114150000Y-111900000D02*
X114500000Y-109450000D01*
X112150000Y-127575000D02*
X112975000Y-127450000D01*
D12*
X77394000Y-129050000D02*
X80950000Y-129050000D01*
X77400000Y-137100000D02*
X77400000Y-129099000D01*
X80950000Y-137150000D02*
X77394000Y-137150000D01*
D13*
X95250000Y-143975000D02*
X81250000Y-143975000D01*
X81746840Y-139973760D02*
X94748080Y-139973760D01*
X95250000Y-139475000D02*
X81250000Y-139475000D01*
X86350840Y-139973760D02*
X86350840Y-140474140D01*
X86350840Y-140474140D02*
X86152720Y-140474140D01*
X86152720Y-140474140D02*
X86152720Y-139973760D01*
X84151200Y-140474140D02*
X84151200Y-139973760D01*
X84349320Y-140474140D02*
X84151200Y-140474140D01*
X84349320Y-139973760D02*
X84349320Y-140474140D01*
X90150680Y-140474140D02*
X90150680Y-139973760D01*
X90348800Y-140474140D02*
X90150680Y-140474140D01*
X90348800Y-139973760D02*
X90348800Y-140474140D01*
X92152200Y-140474140D02*
X92152200Y-139973760D01*
X92350320Y-140474140D02*
X92152200Y-140474140D01*
X92350320Y-139973760D02*
X92350320Y-140474140D01*
X88349820Y-139973760D02*
X88349820Y-140474140D01*
X88349820Y-140474140D02*
X88151700Y-140474140D01*
X88151700Y-140474140D02*
X88151700Y-139973760D01*
X81249000Y-142775380D02*
X81749380Y-142775380D01*
X81749380Y-141474900D02*
X81249000Y-141474900D01*
X94750620Y-141474900D02*
X95251000Y-141474900D01*
X94750620Y-142775380D02*
X95251000Y-142775380D01*
X92751640Y-143974260D02*
X92751640Y-143473880D01*
X92751640Y-143473880D02*
X94750620Y-143473880D01*
X94750620Y-143473880D02*
X94750620Y-139973760D01*
X81749380Y-139973760D02*
X81749380Y-143473880D01*
X81749380Y-143473880D02*
X83748360Y-143473880D01*
X83748360Y-143473880D02*
X83748360Y-143974260D01*
X95250000Y-143975000D02*
X95250000Y-139475000D01*
X81250000Y-143975000D02*
X81250000Y-139475000D01*
X93551740Y-143974260D02*
X93551740Y-144174920D01*
X93551740Y-144174920D02*
X93851460Y-144174920D01*
X93851460Y-144174920D02*
X93851460Y-143974260D01*
X115000000Y-125870000D02*
X115000000Y-109870000D01*
X119001240Y-110366840D02*
X119001240Y-125368080D01*
X119500000Y-125870000D02*
X119500000Y-109870000D01*
X119001240Y-112970340D02*
X118500860Y-112970340D01*
X118500860Y-112970340D02*
X118500860Y-112772220D01*
X118500860Y-112772220D02*
X119001240Y-112772220D01*
X119001240Y-116970840D02*
X118500860Y-116970840D01*
X118500860Y-116970840D02*
X118500860Y-116772720D01*
X118500860Y-116772720D02*
X119001240Y-116772720D01*
X118500860Y-114771200D02*
X119001240Y-114771200D01*
X118500860Y-114969320D02*
X118500860Y-114771200D01*
X119001240Y-114969320D02*
X118500860Y-114969320D01*
X118500860Y-120770680D02*
X119001240Y-120770680D01*
X118500860Y-120968800D02*
X118500860Y-120770680D01*
X119001240Y-120968800D02*
X118500860Y-120968800D01*
X118500860Y-122772200D02*
X119001240Y-122772200D01*
X118500860Y-122970320D02*
X118500860Y-122772200D01*
X119001240Y-122970320D02*
X118500860Y-122970320D01*
X119001240Y-118969820D02*
X118500860Y-118969820D01*
X118500860Y-118969820D02*
X118500860Y-118771700D01*
X118500860Y-118771700D02*
X119001240Y-118771700D01*
X116199620Y-109869000D02*
X116199620Y-110369380D01*
X117500100Y-110369380D02*
X117500100Y-109869000D01*
X117500100Y-125370620D02*
X117500100Y-125871000D01*
X116199620Y-125370620D02*
X116199620Y-125871000D01*
X115000740Y-123371640D02*
X115501120Y-123371640D01*
X115501120Y-123371640D02*
X115501120Y-125370620D01*
X115501120Y-125370620D02*
X119001240Y-125370620D01*
X119001240Y-110369380D02*
X115501120Y-110369380D01*
X115501120Y-110369380D02*
X115501120Y-112368360D01*
X115501120Y-112368360D02*
X115000740Y-112368360D01*
X115000000Y-125870000D02*
X119500000Y-125870000D01*
X115000000Y-109870000D02*
X119500000Y-109870000D01*
X115000740Y-124171740D02*
X114800080Y-124171740D01*
X114800080Y-124171740D02*
X114800080Y-124471460D01*
X114800080Y-124471460D02*
X115000740Y-124471460D01*
D14*
X91348500Y-125174620D02*
X91348500Y-124468500D01*
X91348500Y-124468500D02*
X89951500Y-124468500D01*
X89951500Y-124468500D02*
X89951500Y-125174620D01*
X91348500Y-126881500D02*
X91348500Y-126175380D01*
X91348500Y-126881500D02*
X89951500Y-126881500D01*
X89951500Y-126881500D02*
X89951500Y-126175380D01*
X108095800Y-141603800D02*
X99104200Y-141603800D01*
X108603800Y-141095800D02*
X108603800Y-132104200D01*
X99104200Y-131596200D02*
X108095800Y-131596200D01*
X98596200Y-141095800D02*
X98596200Y-132104200D01*
X99993200Y-140587800D02*
G75*
G03X99993200Y-140587800I-381000J0D01*
G01*
X99104200Y-141603800D02*
X98596200Y-141095800D01*
X108603800Y-141095800D02*
X108095800Y-141603800D01*
X108095800Y-131596200D02*
X108603800Y-132104200D01*
X98596200Y-132104200D02*
X99104200Y-131596200D01*
D13*
X82449140Y-121824060D02*
X81948760Y-121824060D01*
X82449140Y-121625940D02*
X82449140Y-121824060D01*
X81948760Y-121625940D02*
X82449140Y-121625940D01*
X81450920Y-116723740D02*
X81450920Y-126726260D01*
X81948760Y-126225880D02*
X81948760Y-117224120D01*
X85949260Y-116723740D02*
X85949260Y-126726260D01*
X82449140Y-119822540D02*
X81948760Y-119822540D01*
X82449140Y-119624420D02*
X82449140Y-119822540D01*
X81948760Y-119624420D02*
X82449140Y-119624420D01*
X81948760Y-123624920D02*
X82449140Y-123624920D01*
X82449140Y-123624920D02*
X82449140Y-123823040D01*
X82449140Y-123823040D02*
X81948760Y-123823040D01*
X84750380Y-126726260D02*
X84750380Y-126225880D01*
X83449900Y-126225880D02*
X83449900Y-126726260D01*
X83449900Y-117224120D02*
X83449900Y-116723740D01*
X84750380Y-117224120D02*
X84750380Y-116723740D01*
X85949260Y-119223100D02*
X85448880Y-119223100D01*
X85448880Y-119223100D02*
X85448880Y-117224120D01*
X85448880Y-117224120D02*
X81948760Y-117224120D01*
X81948760Y-126225880D02*
X85448880Y-126225880D01*
X85448880Y-126225880D02*
X85448880Y-124226900D01*
X85448880Y-124226900D02*
X85949260Y-124226900D01*
X85949260Y-116723740D02*
X81450920Y-116723740D01*
X85949260Y-126726260D02*
X81450920Y-126726260D01*
X85949260Y-118423000D02*
X86149920Y-118423000D01*
X86149920Y-118423000D02*
X86149920Y-118123280D01*
X86149920Y-118123280D02*
X85949260Y-118123280D01*
D15*
X98924620Y-128624760D02*
X98226120Y-128624760D01*
X99925380Y-128624760D02*
X100623880Y-128624760D01*
X98924620Y-129925240D02*
X98226120Y-129925240D01*
X100623880Y-129925240D02*
X99925380Y-129925240D01*
X98226120Y-129910000D02*
X98226120Y-128640000D01*
X100623880Y-128640000D02*
X100623880Y-129910000D01*
D14*
X88108000Y-134553000D02*
X88108000Y-134680000D01*
X88108000Y-134680000D02*
X93442000Y-134680000D01*
X93442000Y-130870000D02*
X88108000Y-130870000D01*
X88108000Y-130870000D02*
X88108000Y-134553000D01*
X88108000Y-132267000D02*
X88616000Y-132267000D01*
X88616000Y-132267000D02*
X88616000Y-133283000D01*
X88616000Y-133283000D02*
X88108000Y-133283000D01*
X93442000Y-130870000D02*
X93442000Y-134680000D01*
X94849620Y-126876500D02*
X94143500Y-126876500D01*
X94143500Y-126876500D02*
X94143500Y-128273500D01*
X94143500Y-128273500D02*
X94849620Y-128273500D01*
X96556500Y-126876500D02*
X95850380Y-126876500D01*
X96556500Y-126876500D02*
X96556500Y-128273500D01*
X96556500Y-128273500D02*
X95850380Y-128273500D01*
D10*
X119725000Y-137840000D02*
X119725000Y-139390000D01*
X119725000Y-139390000D02*
X116625000Y-139390000D01*
X116625000Y-139390000D02*
X116625000Y-137840000D01*
X116905000Y-136570000D02*
X116905000Y-126410000D01*
X116905000Y-126410000D02*
X119445000Y-126410000D01*
X119445000Y-126410000D02*
X119445000Y-136570000D01*
X116905000Y-136570000D02*
X119445000Y-136570000D01*
X110200000Y-90100000D02*
X110200000Y-85500000D01*
X110200000Y-85500000D02*
X115800000Y-85500000D01*
X115800000Y-85500000D02*
X115800000Y-90100000D01*
X115800000Y-90100000D02*
X110200000Y-90100000D01*
D16*
X115381000Y-141904000D02*
X115889000Y-141904000D01*
X115889000Y-141904000D02*
X115889000Y-141396000D01*
X115381000Y-141396000D02*
X115889000Y-141396000D01*
X115381000Y-141904000D02*
X115381000Y-141396000D01*
X112841000Y-141904000D02*
X113349000Y-141904000D01*
X113349000Y-141904000D02*
X113349000Y-141396000D01*
X112841000Y-141396000D02*
X113349000Y-141396000D01*
X112841000Y-141904000D02*
X112841000Y-141396000D01*
X117921000Y-141904000D02*
X118429000Y-141904000D01*
X118429000Y-141904000D02*
X118429000Y-141396000D01*
X117921000Y-141396000D02*
X118429000Y-141396000D01*
X117921000Y-141904000D02*
X117921000Y-141396000D01*
D17*
X112460000Y-140380000D02*
X113730000Y-140380000D01*
X113730000Y-140380000D02*
X114365000Y-141015000D01*
X114365000Y-141015000D02*
X114365000Y-142285000D01*
X114365000Y-142285000D02*
X113730000Y-142920000D01*
X114365000Y-141015000D02*
X115000000Y-140380000D01*
X115000000Y-140380000D02*
X116270000Y-140380000D01*
X116270000Y-140380000D02*
X116905000Y-141015000D01*
X116905000Y-141015000D02*
X116905000Y-142285000D01*
X116905000Y-142285000D02*
X116270000Y-142920000D01*
X116270000Y-142920000D02*
X115000000Y-142920000D01*
X115000000Y-142920000D02*
X114365000Y-142285000D01*
X111825000Y-141015000D02*
X111825000Y-142285000D01*
X112460000Y-140380000D02*
X111825000Y-141015000D01*
X111825000Y-142285000D02*
X112460000Y-142920000D01*
X113730000Y-142920000D02*
X112460000Y-142920000D01*
X116905000Y-141015000D02*
X117540000Y-140380000D01*
X117540000Y-140380000D02*
X118810000Y-140380000D01*
X118810000Y-140380000D02*
X119445000Y-141015000D01*
X119445000Y-141015000D02*
X119445000Y-142285000D01*
X119445000Y-142285000D02*
X118810000Y-142920000D01*
X118810000Y-142920000D02*
X117540000Y-142920000D01*
X117540000Y-142920000D02*
X116905000Y-142285000D01*
D14*
X96309000Y-107510000D02*
X96309000Y-112590000D01*
X91991000Y-107510000D02*
X91991000Y-112590000D01*
X91356000Y-107510000D02*
X96944000Y-107510000D01*
X96944000Y-107510000D02*
X96944000Y-112590000D01*
X96944000Y-112590000D02*
X91356000Y-112590000D01*
X91356000Y-112590000D02*
X91356000Y-107510000D01*
D10*
X97200000Y-90100000D02*
X97200000Y-85500000D01*
X97200000Y-85500000D02*
X102800000Y-85500000D01*
X102800000Y-85500000D02*
X102800000Y-90100000D01*
X102800000Y-90100000D02*
X97200000Y-90100000D01*
X84200000Y-90100000D02*
X84200000Y-85500000D01*
X84200000Y-85500000D02*
X89800000Y-85500000D01*
X89800000Y-85500000D02*
X89800000Y-90100000D01*
X89800000Y-90100000D02*
X84200000Y-90100000D01*
D15*
X116250240Y-138149620D02*
X116250240Y-137451120D01*
X116250240Y-139150380D02*
X116250240Y-139848880D01*
X114949760Y-138149620D02*
X114949760Y-137451120D01*
X114949760Y-139848880D02*
X114949760Y-139150380D01*
X114965000Y-137451120D02*
X116235000Y-137451120D01*
X116235000Y-139848880D02*
X114965000Y-139848880D01*
X111625240Y-139299620D02*
X111625240Y-138601120D01*
X111625240Y-140300380D02*
X111625240Y-140998880D01*
X110324760Y-139299620D02*
X110324760Y-138601120D01*
X110324760Y-140998880D02*
X110324760Y-140300380D01*
X110340000Y-138601120D02*
X111610000Y-138601120D01*
X111610000Y-140998880D02*
X110340000Y-140998880D01*
X108944033Y-132038611D02*
X109437947Y-132532525D01*
X108236389Y-131330967D02*
X107742475Y-130837053D01*
X109863611Y-131119033D02*
X110357525Y-131612947D01*
X108662053Y-129917475D02*
X109155967Y-130411389D01*
X110346749Y-131623723D02*
X109448723Y-132521749D01*
X107753251Y-130826277D02*
X108651277Y-129928251D01*
X98200380Y-131425240D02*
X98898880Y-131425240D01*
X97199620Y-131425240D02*
X96501120Y-131425240D01*
X98200380Y-130124760D02*
X98898880Y-130124760D01*
X96501120Y-130124760D02*
X97199620Y-130124760D01*
X98898880Y-130140000D02*
X98898880Y-131410000D01*
X96501120Y-131410000D02*
X96501120Y-130140000D01*
X95574760Y-141300380D02*
X95574760Y-141998880D01*
X95574760Y-140299620D02*
X95574760Y-139601120D01*
X96875240Y-141300380D02*
X96875240Y-141998880D01*
X96875240Y-139601120D02*
X96875240Y-140299620D01*
X96860000Y-141998880D02*
X95590000Y-141998880D01*
X95590000Y-139601120D02*
X96860000Y-139601120D01*
X111725240Y-131899620D02*
X111725240Y-131201120D01*
X111725240Y-132900380D02*
X111725240Y-133598880D01*
X110424760Y-131899620D02*
X110424760Y-131201120D01*
X110424760Y-133598880D02*
X110424760Y-132900380D01*
X110440000Y-131201120D02*
X111710000Y-131201120D01*
X111710000Y-133598880D02*
X110440000Y-133598880D01*
X102424760Y-128450380D02*
X102424760Y-129148880D01*
X102424760Y-127449620D02*
X102424760Y-126751120D01*
X103725240Y-128450380D02*
X103725240Y-129148880D01*
X103725240Y-126751120D02*
X103725240Y-127449620D01*
X103710000Y-129148880D02*
X102440000Y-129148880D01*
X102440000Y-126751120D02*
X103710000Y-126751120D01*
X94199760Y-126175380D02*
X94199760Y-126873880D01*
X94199760Y-125174620D02*
X94199760Y-124476120D01*
X95500240Y-126175380D02*
X95500240Y-126873880D01*
X95500240Y-124476120D02*
X95500240Y-125174620D01*
X95485000Y-126873880D02*
X94215000Y-126873880D01*
X94215000Y-124476120D02*
X95485000Y-124476120D01*
X109125240Y-127724620D02*
X109125240Y-127026120D01*
X109125240Y-128725380D02*
X109125240Y-129423880D01*
X107824760Y-127724620D02*
X107824760Y-127026120D01*
X107824760Y-129423880D02*
X107824760Y-128725380D01*
X107840000Y-127026120D02*
X109110000Y-127026120D01*
X109110000Y-129423880D02*
X107840000Y-129423880D01*
X92799760Y-126175380D02*
X92799760Y-126873880D01*
X92799760Y-125174620D02*
X92799760Y-124476120D01*
X94100240Y-126175380D02*
X94100240Y-126873880D01*
X94100240Y-124476120D02*
X94100240Y-125174620D01*
X94085000Y-126873880D02*
X92815000Y-126873880D01*
X92815000Y-124476120D02*
X94085000Y-124476120D01*
X105575240Y-127449620D02*
X105575240Y-126751120D01*
X105575240Y-128450380D02*
X105575240Y-129148880D01*
X104274760Y-127449620D02*
X104274760Y-126751120D01*
X104274760Y-129148880D02*
X104274760Y-128450380D01*
X104290000Y-126751120D02*
X105560000Y-126751120D01*
X105560000Y-129148880D02*
X104290000Y-129148880D01*
X111599760Y-126400380D02*
X111599760Y-127098880D01*
X111599760Y-125399620D02*
X111599760Y-124701120D01*
X112900240Y-126400380D02*
X112900240Y-127098880D01*
X112900240Y-124701120D02*
X112900240Y-125399620D01*
X112885000Y-127098880D02*
X111615000Y-127098880D01*
X111615000Y-124701120D02*
X112885000Y-124701120D01*
X98936389Y-115069033D02*
X98442475Y-115562947D01*
X99644033Y-114361389D02*
X100137947Y-113867475D01*
X99855967Y-115988611D02*
X99362053Y-116482525D01*
X101057525Y-114787053D02*
X100563611Y-115280967D01*
X99351277Y-116471749D02*
X98453251Y-115573723D01*
X100148723Y-113878251D02*
X101046749Y-114776277D01*
X101724620Y-114349760D02*
X101026120Y-114349760D01*
X102725380Y-114349760D02*
X103423880Y-114349760D01*
X101724620Y-115650240D02*
X101026120Y-115650240D01*
X103423880Y-115650240D02*
X102725380Y-115650240D01*
X101026120Y-115635000D02*
X101026120Y-114365000D01*
X103423880Y-114365000D02*
X103423880Y-115635000D01*
X104299620Y-114349760D02*
X103601120Y-114349760D01*
X105300380Y-114349760D02*
X105998880Y-114349760D01*
X104299620Y-115650240D02*
X103601120Y-115650240D01*
X105998880Y-115650240D02*
X105300380Y-115650240D01*
X103601120Y-115635000D02*
X103601120Y-114365000D01*
X105998880Y-114365000D02*
X105998880Y-115635000D01*
X106874620Y-114349760D02*
X106176120Y-114349760D01*
X107875380Y-114349760D02*
X108573880Y-114349760D01*
X106874620Y-115650240D02*
X106176120Y-115650240D01*
X108573880Y-115650240D02*
X107875380Y-115650240D01*
X106176120Y-115635000D02*
X106176120Y-114365000D01*
X108573880Y-114365000D02*
X108573880Y-115635000D01*
X110325380Y-115650240D02*
X111023880Y-115650240D01*
X109324620Y-115650240D02*
X108626120Y-115650240D01*
X110325380Y-114349760D02*
X111023880Y-114349760D01*
X108626120Y-114349760D02*
X109324620Y-114349760D01*
X111023880Y-114365000D02*
X111023880Y-115635000D01*
X108626120Y-115635000D02*
X108626120Y-114365000D01*
X111724620Y-114349760D02*
X111026120Y-114349760D01*
X112725380Y-114349760D02*
X113423880Y-114349760D01*
X111724620Y-115650240D02*
X111026120Y-115650240D01*
X113423880Y-115650240D02*
X112725380Y-115650240D01*
X111026120Y-115635000D02*
X111026120Y-114365000D01*
X113423880Y-114365000D02*
X113423880Y-115635000D01*
X113999760Y-136725380D02*
X113999760Y-137423880D01*
X113999760Y-135724620D02*
X113999760Y-135026120D01*
X115300240Y-136725380D02*
X115300240Y-137423880D01*
X115300240Y-135026120D02*
X115300240Y-135724620D01*
X115285000Y-137423880D02*
X114015000Y-137423880D01*
X114015000Y-135026120D02*
X115285000Y-135026120D01*
X90149620Y-136374760D02*
X89451120Y-136374760D01*
X91150380Y-136374760D02*
X91848880Y-136374760D01*
X90149620Y-137675240D02*
X89451120Y-137675240D01*
X91848880Y-137675240D02*
X91150380Y-137675240D01*
X89451120Y-137660000D02*
X89451120Y-136390000D01*
X91848880Y-136390000D02*
X91848880Y-137660000D01*
D14*
X118775380Y-108573500D02*
X119481500Y-108573500D01*
X119481500Y-108573500D02*
X119481500Y-107176500D01*
X119481500Y-107176500D02*
X118775380Y-107176500D01*
X117068500Y-108573500D02*
X117774620Y-108573500D01*
X117068500Y-108573500D02*
X117068500Y-107176500D01*
X117068500Y-107176500D02*
X117774620Y-107176500D01*
X116698500Y-135724620D02*
X116698500Y-135018500D01*
X116698500Y-135018500D02*
X115301500Y-135018500D01*
X115301500Y-135018500D02*
X115301500Y-135724620D01*
X116698500Y-137431500D02*
X116698500Y-136725380D01*
X116698500Y-137431500D02*
X115301500Y-137431500D01*
X115301500Y-137431500D02*
X115301500Y-136725380D01*
X114225380Y-139848500D02*
X114931500Y-139848500D01*
X114931500Y-139848500D02*
X114931500Y-138451500D01*
X114931500Y-138451500D02*
X114225380Y-138451500D01*
X112518500Y-139848500D02*
X113224620Y-139848500D01*
X112518500Y-139848500D02*
X112518500Y-138451500D01*
X112518500Y-138451500D02*
X113224620Y-138451500D01*
X91351500Y-126175380D02*
X91351500Y-126881500D01*
X91351500Y-126881500D02*
X92748500Y-126881500D01*
X92748500Y-126881500D02*
X92748500Y-126175380D01*
X91351500Y-124468500D02*
X91351500Y-125174620D01*
X91351500Y-124468500D02*
X92748500Y-124468500D01*
X92748500Y-124468500D02*
X92748500Y-125174620D01*
X100075380Y-128523500D02*
X100781500Y-128523500D01*
X100781500Y-128523500D02*
X100781500Y-127126500D01*
X100781500Y-127126500D02*
X100075380Y-127126500D01*
X98368500Y-128523500D02*
X99074620Y-128523500D01*
X98368500Y-128523500D02*
X98368500Y-127126500D01*
X98368500Y-127126500D02*
X99074620Y-127126500D01*
X96948500Y-125174620D02*
X96948500Y-124468500D01*
X96948500Y-124468500D02*
X95551500Y-124468500D01*
X95551500Y-124468500D02*
X95551500Y-125174620D01*
X96948500Y-126881500D02*
X96948500Y-126175380D01*
X96948500Y-126881500D02*
X95551500Y-126881500D01*
X95551500Y-126881500D02*
X95551500Y-126175380D01*
X118998500Y-91599620D02*
X118998500Y-90893500D01*
X118998500Y-90893500D02*
X117601500Y-90893500D01*
X117601500Y-90893500D02*
X117601500Y-91599620D01*
X118998500Y-93306500D02*
X118998500Y-92600380D01*
X118998500Y-93306500D02*
X117601500Y-93306500D01*
X117601500Y-93306500D02*
X117601500Y-92600380D01*
X105998500Y-91599620D02*
X105998500Y-90893500D01*
X105998500Y-90893500D02*
X104601500Y-90893500D01*
X104601500Y-90893500D02*
X104601500Y-91599620D01*
X105998500Y-93306500D02*
X105998500Y-92600380D01*
X105998500Y-93306500D02*
X104601500Y-93306500D01*
X104601500Y-93306500D02*
X104601500Y-92600380D01*
X92998500Y-91599620D02*
X92998500Y-90893500D01*
X92998500Y-90893500D02*
X91601500Y-90893500D01*
X91601500Y-90893500D02*
X91601500Y-91599620D01*
X92998500Y-93306500D02*
X92998500Y-92600380D01*
X92998500Y-93306500D02*
X91601500Y-93306500D01*
X91601500Y-93306500D02*
X91601500Y-92600380D01*
X109823500Y-112624620D02*
X109823500Y-111918500D01*
X109823500Y-111918500D02*
X108426500Y-111918500D01*
X108426500Y-111918500D02*
X108426500Y-112624620D01*
X109823500Y-114331500D02*
X109823500Y-113625380D01*
X109823500Y-114331500D02*
X108426500Y-114331500D01*
X108426500Y-114331500D02*
X108426500Y-113625380D01*
X111173500Y-112624620D02*
X111173500Y-111918500D01*
X111173500Y-111918500D02*
X109776500Y-111918500D01*
X109776500Y-111918500D02*
X109776500Y-112624620D01*
X111173500Y-114331500D02*
X111173500Y-113625380D01*
X111173500Y-114331500D02*
X109776500Y-114331500D01*
X109776500Y-114331500D02*
X109776500Y-113625380D01*
X112523500Y-112624620D02*
X112523500Y-111918500D01*
X112523500Y-111918500D02*
X111126500Y-111918500D01*
X111126500Y-111918500D02*
X111126500Y-112624620D01*
X112523500Y-114331500D02*
X112523500Y-113625380D01*
X112523500Y-114331500D02*
X111126500Y-114331500D01*
X111126500Y-114331500D02*
X111126500Y-113625380D01*
X113873500Y-112624620D02*
X113873500Y-111918500D01*
X113873500Y-111918500D02*
X112476500Y-111918500D01*
X112476500Y-111918500D02*
X112476500Y-112624620D01*
X113873500Y-114331500D02*
X113873500Y-113625380D01*
X113873500Y-114331500D02*
X112476500Y-114331500D01*
X112476500Y-114331500D02*
X112476500Y-113625380D01*
X95525380Y-133473500D02*
X96231500Y-133473500D01*
X96231500Y-133473500D02*
X96231500Y-132076500D01*
X96231500Y-132076500D02*
X95525380Y-132076500D01*
X93818500Y-133473500D02*
X94524620Y-133473500D01*
X93818500Y-133473500D02*
X93818500Y-132076500D01*
X93818500Y-132076500D02*
X94524620Y-132076500D01*
X95525380Y-132123500D02*
X96231500Y-132123500D01*
X96231500Y-132123500D02*
X96231500Y-130726500D01*
X96231500Y-130726500D02*
X95525380Y-130726500D01*
X93818500Y-132123500D02*
X94524620Y-132123500D01*
X93818500Y-132123500D02*
X93818500Y-130726500D01*
X93818500Y-130726500D02*
X94524620Y-130726500D01*
X90274620Y-127826500D02*
X89568500Y-127826500D01*
X89568500Y-127826500D02*
X89568500Y-129223500D01*
X89568500Y-129223500D02*
X90274620Y-129223500D01*
X91981500Y-127826500D02*
X91275380Y-127826500D01*
X91981500Y-127826500D02*
X91981500Y-129223500D01*
X91981500Y-129223500D02*
X91275380Y-129223500D01*
D18*
X81000000Y-129100000D02*
X81000000Y-137100000D01*
D14*
X110844600Y-107949800D02*
X108355400Y-107949800D01*
X108355400Y-111150200D02*
X110844600Y-111150200D01*
X110844600Y-110693000D02*
X108355400Y-110693000D01*
X108355400Y-108407000D02*
X110844600Y-108407000D01*
X108355400Y-107949800D02*
X108355400Y-111150200D01*
X110844600Y-111150200D02*
X110844600Y-107949800D01*
X104944600Y-107949800D02*
X102455400Y-107949800D01*
X102455400Y-111150200D02*
X104944600Y-111150200D01*
X104944600Y-110693000D02*
X102455400Y-110693000D01*
X102455400Y-108407000D02*
X104944600Y-108407000D01*
X102455400Y-107949800D02*
X102455400Y-111150200D01*
X104944600Y-111150200D02*
X104944600Y-107949800D01*
X107894600Y-107949800D02*
X105405400Y-107949800D01*
X105405400Y-111150200D02*
X107894600Y-111150200D01*
X107894600Y-110693000D02*
X105405400Y-110693000D01*
X105405400Y-108407000D02*
X107894600Y-108407000D01*
X105405400Y-107949800D02*
X105405400Y-111150200D01*
X107894600Y-111150200D02*
X107894600Y-107949800D01*
X96744600Y-116274800D02*
X94255400Y-116274800D01*
X94255400Y-119475200D02*
X96744600Y-119475200D01*
X96744600Y-119018000D02*
X94255400Y-119018000D01*
X94255400Y-116732000D02*
X96744600Y-116732000D01*
X94255400Y-116274800D02*
X94255400Y-119475200D01*
X96744600Y-119475200D02*
X96744600Y-116274800D01*
X111755400Y-120575200D02*
X114244600Y-120575200D01*
X114244600Y-117374800D02*
X111755400Y-117374800D01*
X111755400Y-117832000D02*
X114244600Y-117832000D01*
X114244600Y-120118000D02*
X111755400Y-120118000D01*
X114244600Y-120575200D02*
X114244600Y-117374800D01*
X111755400Y-117374800D02*
X111755400Y-120575200D01*
X111305400Y-111150200D02*
X113794600Y-111150200D01*
X113794600Y-107949800D02*
X111305400Y-107949800D01*
X111305400Y-108407000D02*
X113794600Y-108407000D01*
X113794600Y-110693000D02*
X111305400Y-110693000D01*
X113794600Y-111150200D02*
X113794600Y-107949800D01*
X111305400Y-107949800D02*
X111305400Y-111150200D01*
D15*
X110475240Y-127749620D02*
X110475240Y-127051120D01*
X110475240Y-128750380D02*
X110475240Y-129448880D01*
X109174760Y-127749620D02*
X109174760Y-127051120D01*
X109174760Y-129448880D02*
X109174760Y-128750380D01*
X109190000Y-127051120D02*
X110460000Y-127051120D01*
X110460000Y-129448880D02*
X109190000Y-129448880D01*
D14*
X95750200Y-123994600D02*
X95750200Y-121505400D01*
X92549800Y-121505400D02*
X92549800Y-123994600D01*
X93007000Y-123994600D02*
X93007000Y-121505400D01*
X95293000Y-121505400D02*
X95293000Y-123994600D01*
X95750200Y-121505400D02*
X92549800Y-121505400D01*
X92549800Y-123994600D02*
X95750200Y-123994600D01*
D15*
X115875240Y-128649620D02*
X115875240Y-127951120D01*
X115875240Y-129650380D02*
X115875240Y-130348880D01*
X114574760Y-128649620D02*
X114574760Y-127951120D01*
X114574760Y-130348880D02*
X114574760Y-129650380D01*
X114590000Y-127951120D02*
X115860000Y-127951120D01*
X115860000Y-130348880D02*
X114590000Y-130348880D01*
X114525240Y-128649620D02*
X114525240Y-127951120D01*
X114525240Y-129650380D02*
X114525240Y-130348880D01*
X113224760Y-128649620D02*
X113224760Y-127951120D01*
X113224760Y-130348880D02*
X113224760Y-129650380D01*
X113240000Y-127951120D02*
X114510000Y-127951120D01*
X114510000Y-130348880D02*
X113240000Y-130348880D01*
X113175240Y-128649620D02*
X113175240Y-127951120D01*
X113175240Y-129650380D02*
X113175240Y-130348880D01*
X111874760Y-128649620D02*
X111874760Y-127951120D01*
X111874760Y-130348880D02*
X111874760Y-129650380D01*
X111890000Y-127951120D02*
X113160000Y-127951120D01*
X113160000Y-130348880D02*
X111890000Y-130348880D01*
D14*
X110476500Y-128775380D02*
X110476500Y-129481500D01*
X110476500Y-129481500D02*
X111873500Y-129481500D01*
X111873500Y-129481500D02*
X111873500Y-128775380D01*
X110476500Y-127068500D02*
X110476500Y-127774620D01*
X110476500Y-127068500D02*
X111873500Y-127068500D01*
X111873500Y-127068500D02*
X111873500Y-127774620D01*
X97200000Y-124700000D02*
X111300000Y-124700000D01*
X111300000Y-118500000D02*
X97200000Y-118500000D01*
X111300000Y-118550000D02*
X111300000Y-124650000D01*
X97200000Y-124700000D02*
X97200000Y-118500000D01*
X98497214Y-123850000D02*
G75*
G03X98497214Y-123850000I-447214J0D01*
G01*
D13*
X81750000Y-105900000D02*
X92250000Y-105900000D01*
X81750000Y-95200000D02*
X92250000Y-95200000D01*
X92250000Y-95200000D02*
X92250000Y-105900000D01*
X81750000Y-105900000D02*
X81750000Y-95200000D01*
X94750000Y-105900000D02*
X105250000Y-105900000D01*
X94750000Y-95200000D02*
X105250000Y-95200000D01*
X105250000Y-95200000D02*
X105250000Y-105900000D01*
X94750000Y-105900000D02*
X94750000Y-95200000D01*
X107750000Y-105900000D02*
X118250000Y-105900000D01*
X107750000Y-95200000D02*
X118250000Y-95200000D01*
X118250000Y-95200000D02*
X118250000Y-105900000D01*
X107750000Y-105900000D02*
X107750000Y-95200000D01*
X87650000Y-120400000D02*
X93650000Y-120400000D01*
X93650000Y-114400000D02*
X87650000Y-114400000D01*
X93650000Y-114400000D02*
X93650000Y-120400000D01*
X87650000Y-114400000D02*
X87650000Y-120400000D01*
D10*
X94457143Y-139046429D02*
X94457143Y-138446429D01*
X94685715Y-138446429D01*
X94742857Y-138475000D01*
X94771429Y-138503571D01*
X94800000Y-138560714D01*
X94800000Y-138646429D01*
X94771429Y-138703571D01*
X94742857Y-138732143D01*
X94685715Y-138760714D01*
X94457143Y-138760714D01*
X95371429Y-139046429D02*
X95028572Y-139046429D01*
X95200000Y-139046429D02*
X95200000Y-138446429D01*
X95142857Y-138532143D01*
X95085715Y-138589286D01*
X95028572Y-138617857D01*
X113657143Y-123596429D02*
X113657143Y-122996429D01*
X113885715Y-122996429D01*
X113942857Y-123025000D01*
X113971429Y-123053571D01*
X114000000Y-123110714D01*
X114000000Y-123196429D01*
X113971429Y-123253571D01*
X113942857Y-123282143D01*
X113885715Y-123310714D01*
X113657143Y-123310714D01*
X114200000Y-122996429D02*
X114571429Y-122996429D01*
X114371429Y-123225000D01*
X114457143Y-123225000D01*
X114514286Y-123253571D01*
X114542857Y-123282143D01*
X114571429Y-123339286D01*
X114571429Y-123482143D01*
X114542857Y-123539286D01*
X114514286Y-123567857D01*
X114457143Y-123596429D01*
X114285715Y-123596429D01*
X114228572Y-123567857D01*
X114200000Y-123539286D01*
X87871429Y-123785715D02*
X87585714Y-123985715D01*
X87871429Y-124128572D02*
X87271429Y-124128572D01*
X87271429Y-123900000D01*
X87300000Y-123842858D01*
X87328571Y-123814286D01*
X87385714Y-123785715D01*
X87471429Y-123785715D01*
X87528571Y-123814286D01*
X87557143Y-123842858D01*
X87585714Y-123900000D01*
X87585714Y-124128572D01*
X87871429Y-123214286D02*
X87871429Y-123557143D01*
X87871429Y-123385715D02*
X87271429Y-123385715D01*
X87357143Y-123442858D01*
X87414286Y-123500000D01*
X87442857Y-123557143D01*
X87271429Y-123014286D02*
X87271429Y-122614286D01*
X87871429Y-122871429D01*
X107792857Y-141896429D02*
X107792857Y-142382143D01*
X107821429Y-142439286D01*
X107850000Y-142467857D01*
X107907143Y-142496429D01*
X108021429Y-142496429D01*
X108078571Y-142467857D01*
X108107143Y-142439286D01*
X108135714Y-142382143D01*
X108135714Y-141896429D01*
X108735714Y-142496429D02*
X108392857Y-142496429D01*
X108564285Y-142496429D02*
X108564285Y-141896429D01*
X108507142Y-141982143D01*
X108450000Y-142039286D01*
X108392857Y-142067857D01*
X83235714Y-116221429D02*
X83235714Y-115621429D01*
X83464286Y-115621429D01*
X83521428Y-115650000D01*
X83550000Y-115678571D01*
X83578571Y-115735714D01*
X83578571Y-115821429D01*
X83550000Y-115878571D01*
X83521428Y-115907143D01*
X83464286Y-115935714D01*
X83235714Y-115935714D01*
X84150000Y-116221429D02*
X83807143Y-116221429D01*
X83978571Y-116221429D02*
X83978571Y-115621429D01*
X83921428Y-115707143D01*
X83864286Y-115764286D01*
X83807143Y-115792857D01*
X84521429Y-115621429D02*
X84578572Y-115621429D01*
X84635715Y-115650000D01*
X84664286Y-115678571D01*
X84692857Y-115735714D01*
X84721429Y-115850000D01*
X84721429Y-115992857D01*
X84692857Y-116107143D01*
X84664286Y-116164286D01*
X84635715Y-116192857D01*
X84578572Y-116221429D01*
X84521429Y-116221429D01*
X84464286Y-116192857D01*
X84435715Y-116164286D01*
X84407143Y-116107143D01*
X84378572Y-115992857D01*
X84378572Y-115850000D01*
X84407143Y-115735714D01*
X84435715Y-115678571D01*
X84464286Y-115650000D01*
X84521429Y-115621429D01*
X85292858Y-116221429D02*
X84950001Y-116221429D01*
X85121429Y-116221429D02*
X85121429Y-115621429D01*
X85064286Y-115707143D01*
X85007144Y-115764286D01*
X84950001Y-115792857D01*
X96764285Y-129664286D02*
X96735714Y-129692857D01*
X96650000Y-129721429D01*
X96592857Y-129721429D01*
X96507142Y-129692857D01*
X96450000Y-129635714D01*
X96421428Y-129578571D01*
X96392857Y-129464286D01*
X96392857Y-129378571D01*
X96421428Y-129264286D01*
X96450000Y-129207143D01*
X96507142Y-129150000D01*
X96592857Y-129121429D01*
X96650000Y-129121429D01*
X96735714Y-129150000D01*
X96764285Y-129178571D01*
X97335714Y-129721429D02*
X96992857Y-129721429D01*
X97164285Y-129721429D02*
X97164285Y-129121429D01*
X97107142Y-129207143D01*
X97050000Y-129264286D01*
X96992857Y-129292857D01*
X97535714Y-129121429D02*
X97935714Y-129121429D01*
X97678571Y-129721429D01*
X93321428Y-134971429D02*
X93321428Y-135457143D01*
X93350000Y-135514286D01*
X93378571Y-135542857D01*
X93435714Y-135571429D01*
X93550000Y-135571429D01*
X93607142Y-135542857D01*
X93635714Y-135514286D01*
X93664285Y-135457143D01*
X93664285Y-134971429D01*
X94207142Y-135171429D02*
X94207142Y-135571429D01*
X94064285Y-134942857D02*
X93921428Y-135371429D01*
X94292856Y-135371429D01*
X94635714Y-134971429D02*
X94692857Y-134971429D01*
X94750000Y-135000000D01*
X94778571Y-135028571D01*
X94807142Y-135085714D01*
X94835714Y-135200000D01*
X94835714Y-135342857D01*
X94807142Y-135457143D01*
X94778571Y-135514286D01*
X94750000Y-135542857D01*
X94692857Y-135571429D01*
X94635714Y-135571429D01*
X94578571Y-135542857D01*
X94550000Y-135514286D01*
X94521428Y-135457143D01*
X94492857Y-135342857D01*
X94492857Y-135200000D01*
X94521428Y-135085714D01*
X94550000Y-135028571D01*
X94578571Y-135000000D01*
X94635714Y-134971429D01*
X95407143Y-135571429D02*
X95064286Y-135571429D01*
X95235714Y-135571429D02*
X95235714Y-134971429D01*
X95178571Y-135057143D01*
X95121429Y-135114286D01*
X95064286Y-135142857D01*
X94964285Y-129171429D02*
X94764285Y-128885714D01*
X94621428Y-129171429D02*
X94621428Y-128571429D01*
X94850000Y-128571429D01*
X94907142Y-128600000D01*
X94935714Y-128628571D01*
X94964285Y-128685714D01*
X94964285Y-128771429D01*
X94935714Y-128828571D01*
X94907142Y-128857143D01*
X94850000Y-128885714D01*
X94621428Y-128885714D01*
X95535714Y-129171429D02*
X95192857Y-129171429D01*
X95364285Y-129171429D02*
X95364285Y-128571429D01*
X95307142Y-128657143D01*
X95250000Y-128714286D01*
X95192857Y-128742857D01*
X95821429Y-129171429D02*
X95935714Y-129171429D01*
X95992857Y-129142857D01*
X96021429Y-129114286D01*
X96078571Y-129028571D01*
X96107143Y-128914286D01*
X96107143Y-128685714D01*
X96078571Y-128628571D01*
X96050000Y-128600000D01*
X95992857Y-128571429D01*
X95878571Y-128571429D01*
X95821429Y-128600000D01*
X95792857Y-128628571D01*
X95764286Y-128685714D01*
X95764286Y-128828571D01*
X95792857Y-128885714D01*
X95821429Y-128914286D01*
X95878571Y-128942857D01*
X95992857Y-128942857D01*
X96050000Y-128914286D01*
X96078571Y-128885714D01*
X96107143Y-128828571D01*
X115682143Y-132971429D02*
X115682143Y-132371429D01*
X115910715Y-132371429D01*
X115967857Y-132400000D01*
X115996429Y-132428571D01*
X116025000Y-132485714D01*
X116025000Y-132571429D01*
X115996429Y-132628571D01*
X115967857Y-132657143D01*
X115910715Y-132685714D01*
X115682143Y-132685714D01*
X116253572Y-132428571D02*
X116282143Y-132400000D01*
X116339286Y-132371429D01*
X116482143Y-132371429D01*
X116539286Y-132400000D01*
X116567857Y-132428571D01*
X116596429Y-132485714D01*
X116596429Y-132542857D01*
X116567857Y-132628571D01*
X116225000Y-132971429D01*
X116596429Y-132971429D01*
X116207143Y-86096429D02*
X116207143Y-85496429D01*
X116435715Y-85496429D01*
X116492857Y-85525000D01*
X116521429Y-85553571D01*
X116550000Y-85610714D01*
X116550000Y-85696429D01*
X116521429Y-85753571D01*
X116492857Y-85782143D01*
X116435715Y-85810714D01*
X116207143Y-85810714D01*
X117064286Y-85496429D02*
X116950000Y-85496429D01*
X116892857Y-85525000D01*
X116864286Y-85553571D01*
X116807143Y-85639286D01*
X116778572Y-85753571D01*
X116778572Y-85982143D01*
X116807143Y-86039286D01*
X116835715Y-86067857D01*
X116892857Y-86096429D01*
X117007143Y-86096429D01*
X117064286Y-86067857D01*
X117092857Y-86039286D01*
X117121429Y-85982143D01*
X117121429Y-85839286D01*
X117092857Y-85782143D01*
X117064286Y-85753571D01*
X117007143Y-85725000D01*
X116892857Y-85725000D01*
X116835715Y-85753571D01*
X116807143Y-85782143D01*
X116778572Y-85839286D01*
X111257143Y-143646429D02*
X111257143Y-143046429D01*
X111600000Y-143646429D02*
X111342857Y-143303571D01*
X111600000Y-143046429D02*
X111257143Y-143389286D01*
X112171429Y-143646429D02*
X111828572Y-143646429D01*
X112000000Y-143646429D02*
X112000000Y-143046429D01*
X111942857Y-143132143D01*
X111885715Y-143189286D01*
X111828572Y-143217857D01*
X94139285Y-113414286D02*
X94110714Y-113442857D01*
X94025000Y-113471429D01*
X93967857Y-113471429D01*
X93882142Y-113442857D01*
X93825000Y-113385714D01*
X93796428Y-113328571D01*
X93767857Y-113214286D01*
X93767857Y-113128571D01*
X93796428Y-113014286D01*
X93825000Y-112957143D01*
X93882142Y-112900000D01*
X93967857Y-112871429D01*
X94025000Y-112871429D01*
X94110714Y-112900000D01*
X94139285Y-112928571D01*
X94339285Y-112871429D02*
X94710714Y-112871429D01*
X94510714Y-113100000D01*
X94596428Y-113100000D01*
X94653571Y-113128571D01*
X94682142Y-113157143D01*
X94710714Y-113214286D01*
X94710714Y-113357143D01*
X94682142Y-113414286D01*
X94653571Y-113442857D01*
X94596428Y-113471429D01*
X94425000Y-113471429D01*
X94367857Y-113442857D01*
X94339285Y-113414286D01*
X94910714Y-112871429D02*
X95310714Y-112871429D01*
X95053571Y-113471429D01*
X103207143Y-86096429D02*
X103207143Y-85496429D01*
X103435715Y-85496429D01*
X103492857Y-85525000D01*
X103521429Y-85553571D01*
X103550000Y-85610714D01*
X103550000Y-85696429D01*
X103521429Y-85753571D01*
X103492857Y-85782143D01*
X103435715Y-85810714D01*
X103207143Y-85810714D01*
X103750000Y-85496429D02*
X104150000Y-85496429D01*
X103892857Y-86096429D01*
X90207143Y-86096429D02*
X90207143Y-85496429D01*
X90435715Y-85496429D01*
X90492857Y-85525000D01*
X90521429Y-85553571D01*
X90550000Y-85610714D01*
X90550000Y-85696429D01*
X90521429Y-85753571D01*
X90492857Y-85782143D01*
X90435715Y-85810714D01*
X90207143Y-85810714D01*
X90835715Y-86096429D02*
X90950000Y-86096429D01*
X91007143Y-86067857D01*
X91035715Y-86039286D01*
X91092857Y-85953571D01*
X91121429Y-85839286D01*
X91121429Y-85610714D01*
X91092857Y-85553571D01*
X91064286Y-85525000D01*
X91007143Y-85496429D01*
X90892857Y-85496429D01*
X90835715Y-85525000D01*
X90807143Y-85553571D01*
X90778572Y-85610714D01*
X90778572Y-85753571D01*
X90807143Y-85810714D01*
X90835715Y-85839286D01*
X90892857Y-85867857D01*
X91007143Y-85867857D01*
X91064286Y-85839286D01*
X91092857Y-85810714D01*
X91121429Y-85753571D01*
X113639286Y-137775000D02*
X113667857Y-137803571D01*
X113696429Y-137889285D01*
X113696429Y-137946428D01*
X113667857Y-138032143D01*
X113610714Y-138089285D01*
X113553571Y-138117857D01*
X113439286Y-138146428D01*
X113353571Y-138146428D01*
X113239286Y-138117857D01*
X113182143Y-138089285D01*
X113125000Y-138032143D01*
X113096429Y-137946428D01*
X113096429Y-137889285D01*
X113125000Y-137803571D01*
X113153571Y-137775000D01*
X113096429Y-137575000D02*
X113096429Y-137203571D01*
X113325000Y-137403571D01*
X113325000Y-137317857D01*
X113353571Y-137260714D01*
X113382143Y-137232143D01*
X113439286Y-137203571D01*
X113582143Y-137203571D01*
X113639286Y-137232143D01*
X113667857Y-137260714D01*
X113696429Y-137317857D01*
X113696429Y-137489285D01*
X113667857Y-137546428D01*
X113639286Y-137575000D01*
X110364285Y-141839286D02*
X110335714Y-141867857D01*
X110250000Y-141896429D01*
X110192857Y-141896429D01*
X110107142Y-141867857D01*
X110050000Y-141810714D01*
X110021428Y-141753571D01*
X109992857Y-141639286D01*
X109992857Y-141553571D01*
X110021428Y-141439286D01*
X110050000Y-141382143D01*
X110107142Y-141325000D01*
X110192857Y-141296429D01*
X110250000Y-141296429D01*
X110335714Y-141325000D01*
X110364285Y-141353571D01*
X110935714Y-141896429D02*
X110592857Y-141896429D01*
X110764285Y-141896429D02*
X110764285Y-141296429D01*
X110707142Y-141382143D01*
X110650000Y-141439286D01*
X110592857Y-141467857D01*
X111507143Y-141896429D02*
X111164286Y-141896429D01*
X111335714Y-141896429D02*
X111335714Y-141296429D01*
X111278571Y-141382143D01*
X111221429Y-141439286D01*
X111164286Y-141467857D01*
X109425735Y-130228781D02*
X109385330Y-130228781D01*
X109304517Y-130188376D01*
X109264111Y-130147970D01*
X109223705Y-130067157D01*
X109223706Y-129986345D01*
X109243908Y-129925735D01*
X109304517Y-129824721D01*
X109365127Y-129764111D01*
X109466141Y-129703502D01*
X109526751Y-129683299D01*
X109607563Y-129683299D01*
X109688375Y-129723706D01*
X109728781Y-129764112D01*
X109769188Y-129844924D01*
X109769188Y-129885329D01*
X109789390Y-130673249D02*
X109546954Y-130430812D01*
X109668172Y-130552030D02*
X110092436Y-130127766D01*
X109991421Y-130147969D01*
X109910609Y-130147970D01*
X109850000Y-130127766D01*
X110334874Y-130451015D02*
X110375279Y-130451015D01*
X110435888Y-130471219D01*
X110536903Y-130572234D01*
X110557107Y-130632843D01*
X110557107Y-130673248D01*
X110536904Y-130733858D01*
X110496498Y-130774264D01*
X110415685Y-130814670D01*
X109930812Y-130814670D01*
X110193452Y-131077310D01*
X97064285Y-132264286D02*
X97035714Y-132292857D01*
X96950000Y-132321429D01*
X96892857Y-132321429D01*
X96807142Y-132292857D01*
X96750000Y-132235714D01*
X96721428Y-132178571D01*
X96692857Y-132064286D01*
X96692857Y-131978571D01*
X96721428Y-131864286D01*
X96750000Y-131807143D01*
X96807142Y-131750000D01*
X96892857Y-131721429D01*
X96950000Y-131721429D01*
X97035714Y-131750000D01*
X97064285Y-131778571D01*
X97635714Y-132321429D02*
X97292857Y-132321429D01*
X97464285Y-132321429D02*
X97464285Y-131721429D01*
X97407142Y-131807143D01*
X97350000Y-131864286D01*
X97292857Y-131892857D01*
X97835714Y-131721429D02*
X98207143Y-131721429D01*
X98007143Y-131950000D01*
X98092857Y-131950000D01*
X98150000Y-131978571D01*
X98178571Y-132007143D01*
X98207143Y-132064286D01*
X98207143Y-132207143D01*
X98178571Y-132264286D01*
X98150000Y-132292857D01*
X98092857Y-132321429D01*
X97921429Y-132321429D01*
X97864286Y-132292857D01*
X97835714Y-132264286D01*
X96064285Y-142839286D02*
X96035714Y-142867857D01*
X95950000Y-142896429D01*
X95892857Y-142896429D01*
X95807142Y-142867857D01*
X95750000Y-142810714D01*
X95721428Y-142753571D01*
X95692857Y-142639286D01*
X95692857Y-142553571D01*
X95721428Y-142439286D01*
X95750000Y-142382143D01*
X95807142Y-142325000D01*
X95892857Y-142296429D01*
X95950000Y-142296429D01*
X96035714Y-142325000D01*
X96064285Y-142353571D01*
X96635714Y-142896429D02*
X96292857Y-142896429D01*
X96464285Y-142896429D02*
X96464285Y-142296429D01*
X96407142Y-142382143D01*
X96350000Y-142439286D01*
X96292857Y-142467857D01*
X97150000Y-142496429D02*
X97150000Y-142896429D01*
X97007143Y-142267857D02*
X96864286Y-142696429D01*
X97235714Y-142696429D01*
X110689285Y-134439286D02*
X110660714Y-134467857D01*
X110575000Y-134496429D01*
X110517857Y-134496429D01*
X110432142Y-134467857D01*
X110375000Y-134410714D01*
X110346428Y-134353571D01*
X110317857Y-134239286D01*
X110317857Y-134153571D01*
X110346428Y-134039286D01*
X110375000Y-133982143D01*
X110432142Y-133925000D01*
X110517857Y-133896429D01*
X110575000Y-133896429D01*
X110660714Y-133925000D01*
X110689285Y-133953571D01*
X111260714Y-134496429D02*
X110917857Y-134496429D01*
X111089285Y-134496429D02*
X111089285Y-133896429D01*
X111032142Y-133982143D01*
X110975000Y-134039286D01*
X110917857Y-134067857D01*
X111775000Y-133896429D02*
X111660714Y-133896429D01*
X111603571Y-133925000D01*
X111575000Y-133953571D01*
X111517857Y-134039286D01*
X111489286Y-134153571D01*
X111489286Y-134382143D01*
X111517857Y-134439286D01*
X111546429Y-134467857D01*
X111603571Y-134496429D01*
X111717857Y-134496429D01*
X111775000Y-134467857D01*
X111803571Y-134439286D01*
X111832143Y-134382143D01*
X111832143Y-134239286D01*
X111803571Y-134182143D01*
X111775000Y-134153571D01*
X111717857Y-134125000D01*
X111603571Y-134125000D01*
X111546429Y-134153571D01*
X111517857Y-134182143D01*
X111489286Y-134239286D01*
X102064286Y-128335715D02*
X102092857Y-128364286D01*
X102121429Y-128450000D01*
X102121429Y-128507143D01*
X102092857Y-128592858D01*
X102035714Y-128650000D01*
X101978571Y-128678572D01*
X101864286Y-128707143D01*
X101778571Y-128707143D01*
X101664286Y-128678572D01*
X101607143Y-128650000D01*
X101550000Y-128592858D01*
X101521429Y-128507143D01*
X101521429Y-128450000D01*
X101550000Y-128364286D01*
X101578571Y-128335715D01*
X102121429Y-127764286D02*
X102121429Y-128107143D01*
X102121429Y-127935715D02*
X101521429Y-127935715D01*
X101607143Y-127992858D01*
X101664286Y-128050000D01*
X101692857Y-128107143D01*
X101778571Y-127421429D02*
X101750000Y-127478571D01*
X101721429Y-127507143D01*
X101664286Y-127535714D01*
X101635714Y-127535714D01*
X101578571Y-127507143D01*
X101550000Y-127478571D01*
X101521429Y-127421429D01*
X101521429Y-127307143D01*
X101550000Y-127250000D01*
X101578571Y-127221429D01*
X101635714Y-127192857D01*
X101664286Y-127192857D01*
X101721429Y-127221429D01*
X101750000Y-127250000D01*
X101778571Y-127307143D01*
X101778571Y-127421429D01*
X101807143Y-127478571D01*
X101835714Y-127507143D01*
X101892857Y-127535714D01*
X102007143Y-127535714D01*
X102064286Y-127507143D01*
X102092857Y-127478571D01*
X102121429Y-127421429D01*
X102121429Y-127307143D01*
X102092857Y-127250000D01*
X102064286Y-127221429D01*
X102007143Y-127192857D01*
X101892857Y-127192857D01*
X101835714Y-127221429D01*
X101807143Y-127250000D01*
X101778571Y-127307143D01*
X90514286Y-123760715D02*
X90542857Y-123789286D01*
X90571429Y-123875000D01*
X90571429Y-123932143D01*
X90542857Y-124017858D01*
X90485714Y-124075000D01*
X90428571Y-124103572D01*
X90314286Y-124132143D01*
X90228571Y-124132143D01*
X90114286Y-124103572D01*
X90057143Y-124075000D01*
X90000000Y-124017858D01*
X89971429Y-123932143D01*
X89971429Y-123875000D01*
X90000000Y-123789286D01*
X90028571Y-123760715D01*
X90571429Y-123189286D02*
X90571429Y-123532143D01*
X90571429Y-123360715D02*
X89971429Y-123360715D01*
X90057143Y-123417858D01*
X90114286Y-123475000D01*
X90142857Y-123532143D01*
X90571429Y-122903571D02*
X90571429Y-122789286D01*
X90542857Y-122732143D01*
X90514286Y-122703571D01*
X90428571Y-122646429D01*
X90314286Y-122617857D01*
X90085714Y-122617857D01*
X90028571Y-122646429D01*
X90000000Y-122675000D01*
X89971429Y-122732143D01*
X89971429Y-122846429D01*
X90000000Y-122903571D01*
X90028571Y-122932143D01*
X90085714Y-122960714D01*
X90228571Y-122960714D01*
X90285714Y-122932143D01*
X90314286Y-122903571D01*
X90342857Y-122846429D01*
X90342857Y-122732143D01*
X90314286Y-122675000D01*
X90285714Y-122646429D01*
X90228571Y-122617857D01*
X107464286Y-128610715D02*
X107492857Y-128639286D01*
X107521429Y-128725000D01*
X107521429Y-128782143D01*
X107492857Y-128867858D01*
X107435714Y-128925000D01*
X107378571Y-128953572D01*
X107264286Y-128982143D01*
X107178571Y-128982143D01*
X107064286Y-128953572D01*
X107007143Y-128925000D01*
X106950000Y-128867858D01*
X106921429Y-128782143D01*
X106921429Y-128725000D01*
X106950000Y-128639286D01*
X106978571Y-128610715D01*
X106978571Y-128382143D02*
X106950000Y-128353572D01*
X106921429Y-128296429D01*
X106921429Y-128153572D01*
X106950000Y-128096429D01*
X106978571Y-128067858D01*
X107035714Y-128039286D01*
X107092857Y-128039286D01*
X107178571Y-128067858D01*
X107521429Y-128410715D01*
X107521429Y-128039286D01*
X106921429Y-127667857D02*
X106921429Y-127610714D01*
X106950000Y-127553571D01*
X106978571Y-127525000D01*
X107035714Y-127496429D01*
X107150000Y-127467857D01*
X107292857Y-127467857D01*
X107407143Y-127496429D01*
X107464286Y-127525000D01*
X107492857Y-127553571D01*
X107521429Y-127610714D01*
X107521429Y-127667857D01*
X107492857Y-127725000D01*
X107464286Y-127753571D01*
X107407143Y-127782143D01*
X107292857Y-127810714D01*
X107150000Y-127810714D01*
X107035714Y-127782143D01*
X106978571Y-127753571D01*
X106950000Y-127725000D01*
X106921429Y-127667857D01*
X89614286Y-123760715D02*
X89642857Y-123789286D01*
X89671429Y-123875000D01*
X89671429Y-123932143D01*
X89642857Y-124017858D01*
X89585714Y-124075000D01*
X89528571Y-124103572D01*
X89414286Y-124132143D01*
X89328571Y-124132143D01*
X89214286Y-124103572D01*
X89157143Y-124075000D01*
X89100000Y-124017858D01*
X89071429Y-123932143D01*
X89071429Y-123875000D01*
X89100000Y-123789286D01*
X89128571Y-123760715D01*
X89128571Y-123532143D02*
X89100000Y-123503572D01*
X89071429Y-123446429D01*
X89071429Y-123303572D01*
X89100000Y-123246429D01*
X89128571Y-123217858D01*
X89185714Y-123189286D01*
X89242857Y-123189286D01*
X89328571Y-123217858D01*
X89671429Y-123560715D01*
X89671429Y-123189286D01*
X89671429Y-122617857D02*
X89671429Y-122960714D01*
X89671429Y-122789286D02*
X89071429Y-122789286D01*
X89157143Y-122846429D01*
X89214286Y-122903571D01*
X89242857Y-122960714D01*
X106414286Y-128335715D02*
X106442857Y-128364286D01*
X106471429Y-128450000D01*
X106471429Y-128507143D01*
X106442857Y-128592858D01*
X106385714Y-128650000D01*
X106328571Y-128678572D01*
X106214286Y-128707143D01*
X106128571Y-128707143D01*
X106014286Y-128678572D01*
X105957143Y-128650000D01*
X105900000Y-128592858D01*
X105871429Y-128507143D01*
X105871429Y-128450000D01*
X105900000Y-128364286D01*
X105928571Y-128335715D01*
X105928571Y-128107143D02*
X105900000Y-128078572D01*
X105871429Y-128021429D01*
X105871429Y-127878572D01*
X105900000Y-127821429D01*
X105928571Y-127792858D01*
X105985714Y-127764286D01*
X106042857Y-127764286D01*
X106128571Y-127792858D01*
X106471429Y-128135715D01*
X106471429Y-127764286D01*
X105928571Y-127535714D02*
X105900000Y-127507143D01*
X105871429Y-127450000D01*
X105871429Y-127307143D01*
X105900000Y-127250000D01*
X105928571Y-127221429D01*
X105985714Y-127192857D01*
X106042857Y-127192857D01*
X106128571Y-127221429D01*
X106471429Y-127564286D01*
X106471429Y-127192857D01*
X111864285Y-124339286D02*
X111835714Y-124367857D01*
X111750000Y-124396429D01*
X111692857Y-124396429D01*
X111607142Y-124367857D01*
X111550000Y-124310714D01*
X111521428Y-124253571D01*
X111492857Y-124139286D01*
X111492857Y-124053571D01*
X111521428Y-123939286D01*
X111550000Y-123882143D01*
X111607142Y-123825000D01*
X111692857Y-123796429D01*
X111750000Y-123796429D01*
X111835714Y-123825000D01*
X111864285Y-123853571D01*
X112092857Y-123853571D02*
X112121428Y-123825000D01*
X112178571Y-123796429D01*
X112321428Y-123796429D01*
X112378571Y-123825000D01*
X112407142Y-123853571D01*
X112435714Y-123910714D01*
X112435714Y-123967857D01*
X112407142Y-124053571D01*
X112064285Y-124396429D01*
X112435714Y-124396429D01*
X112635714Y-123796429D02*
X113007143Y-123796429D01*
X112807143Y-124025000D01*
X112892857Y-124025000D01*
X112950000Y-124053571D01*
X112978571Y-124082143D01*
X113007143Y-124139286D01*
X113007143Y-124282143D01*
X112978571Y-124339286D01*
X112950000Y-124367857D01*
X112892857Y-124396429D01*
X112721429Y-124396429D01*
X112664286Y-124367857D01*
X112635714Y-124339286D01*
X98753781Y-114724265D02*
X98753781Y-114764670D01*
X98713376Y-114845483D01*
X98672970Y-114885889D01*
X98592157Y-114926295D01*
X98511345Y-114926294D01*
X98450735Y-114906092D01*
X98349721Y-114845483D01*
X98289111Y-114784873D01*
X98228502Y-114683859D01*
X98208299Y-114623249D01*
X98208299Y-114542437D01*
X98248706Y-114461625D01*
X98289112Y-114421219D01*
X98369924Y-114380812D01*
X98410329Y-114380812D01*
X98571954Y-114219188D02*
X98571954Y-114178782D01*
X98592157Y-114118173D01*
X98693172Y-114017158D01*
X98753781Y-113996955D01*
X98794187Y-113996955D01*
X98854797Y-114017157D01*
X98895203Y-114057563D01*
X98935608Y-114138376D01*
X98935609Y-114623250D01*
X99198249Y-114360610D01*
X98915406Y-113794924D02*
X99198249Y-113512082D01*
X99440685Y-114118173D01*
X101839285Y-113989286D02*
X101810714Y-114017857D01*
X101725000Y-114046429D01*
X101667857Y-114046429D01*
X101582142Y-114017857D01*
X101525000Y-113960714D01*
X101496428Y-113903571D01*
X101467857Y-113789286D01*
X101467857Y-113703571D01*
X101496428Y-113589286D01*
X101525000Y-113532143D01*
X101582142Y-113475000D01*
X101667857Y-113446429D01*
X101725000Y-113446429D01*
X101810714Y-113475000D01*
X101839285Y-113503571D01*
X102067857Y-113503571D02*
X102096428Y-113475000D01*
X102153571Y-113446429D01*
X102296428Y-113446429D01*
X102353571Y-113475000D01*
X102382142Y-113503571D01*
X102410714Y-113560714D01*
X102410714Y-113617857D01*
X102382142Y-113703571D01*
X102039285Y-114046429D01*
X102410714Y-114046429D01*
X102753571Y-113703571D02*
X102696429Y-113675000D01*
X102667857Y-113646429D01*
X102639286Y-113589286D01*
X102639286Y-113560714D01*
X102667857Y-113503571D01*
X102696429Y-113475000D01*
X102753571Y-113446429D01*
X102867857Y-113446429D01*
X102925000Y-113475000D01*
X102953571Y-113503571D01*
X102982143Y-113560714D01*
X102982143Y-113589286D01*
X102953571Y-113646429D01*
X102925000Y-113675000D01*
X102867857Y-113703571D01*
X102753571Y-113703571D01*
X102696429Y-113732143D01*
X102667857Y-113760714D01*
X102639286Y-113817857D01*
X102639286Y-113932143D01*
X102667857Y-113989286D01*
X102696429Y-114017857D01*
X102753571Y-114046429D01*
X102867857Y-114046429D01*
X102925000Y-114017857D01*
X102953571Y-113989286D01*
X102982143Y-113932143D01*
X102982143Y-113817857D01*
X102953571Y-113760714D01*
X102925000Y-113732143D01*
X102867857Y-113703571D01*
X104414285Y-113989286D02*
X104385714Y-114017857D01*
X104300000Y-114046429D01*
X104242857Y-114046429D01*
X104157142Y-114017857D01*
X104100000Y-113960714D01*
X104071428Y-113903571D01*
X104042857Y-113789286D01*
X104042857Y-113703571D01*
X104071428Y-113589286D01*
X104100000Y-113532143D01*
X104157142Y-113475000D01*
X104242857Y-113446429D01*
X104300000Y-113446429D01*
X104385714Y-113475000D01*
X104414285Y-113503571D01*
X104642857Y-113503571D02*
X104671428Y-113475000D01*
X104728571Y-113446429D01*
X104871428Y-113446429D01*
X104928571Y-113475000D01*
X104957142Y-113503571D01*
X104985714Y-113560714D01*
X104985714Y-113617857D01*
X104957142Y-113703571D01*
X104614285Y-114046429D01*
X104985714Y-114046429D01*
X105271429Y-114046429D02*
X105385714Y-114046429D01*
X105442857Y-114017857D01*
X105471429Y-113989286D01*
X105528571Y-113903571D01*
X105557143Y-113789286D01*
X105557143Y-113560714D01*
X105528571Y-113503571D01*
X105500000Y-113475000D01*
X105442857Y-113446429D01*
X105328571Y-113446429D01*
X105271429Y-113475000D01*
X105242857Y-113503571D01*
X105214286Y-113560714D01*
X105214286Y-113703571D01*
X105242857Y-113760714D01*
X105271429Y-113789286D01*
X105328571Y-113817857D01*
X105442857Y-113817857D01*
X105500000Y-113789286D01*
X105528571Y-113760714D01*
X105557143Y-113703571D01*
X106989285Y-113989286D02*
X106960714Y-114017857D01*
X106875000Y-114046429D01*
X106817857Y-114046429D01*
X106732142Y-114017857D01*
X106675000Y-113960714D01*
X106646428Y-113903571D01*
X106617857Y-113789286D01*
X106617857Y-113703571D01*
X106646428Y-113589286D01*
X106675000Y-113532143D01*
X106732142Y-113475000D01*
X106817857Y-113446429D01*
X106875000Y-113446429D01*
X106960714Y-113475000D01*
X106989285Y-113503571D01*
X107189285Y-113446429D02*
X107560714Y-113446429D01*
X107360714Y-113675000D01*
X107446428Y-113675000D01*
X107503571Y-113703571D01*
X107532142Y-113732143D01*
X107560714Y-113789286D01*
X107560714Y-113932143D01*
X107532142Y-113989286D01*
X107503571Y-114017857D01*
X107446428Y-114046429D01*
X107275000Y-114046429D01*
X107217857Y-114017857D01*
X107189285Y-113989286D01*
X107932143Y-113446429D02*
X107989286Y-113446429D01*
X108046429Y-113475000D01*
X108075000Y-113503571D01*
X108103571Y-113560714D01*
X108132143Y-113675000D01*
X108132143Y-113817857D01*
X108103571Y-113932143D01*
X108075000Y-113989286D01*
X108046429Y-114017857D01*
X107989286Y-114046429D01*
X107932143Y-114046429D01*
X107875000Y-114017857D01*
X107846429Y-113989286D01*
X107817857Y-113932143D01*
X107789286Y-113817857D01*
X107789286Y-113675000D01*
X107817857Y-113560714D01*
X107846429Y-113503571D01*
X107875000Y-113475000D01*
X107932143Y-113446429D01*
X109439285Y-116514286D02*
X109410714Y-116542857D01*
X109325000Y-116571429D01*
X109267857Y-116571429D01*
X109182142Y-116542857D01*
X109125000Y-116485714D01*
X109096428Y-116428571D01*
X109067857Y-116314286D01*
X109067857Y-116228571D01*
X109096428Y-116114286D01*
X109125000Y-116057143D01*
X109182142Y-116000000D01*
X109267857Y-115971429D01*
X109325000Y-115971429D01*
X109410714Y-116000000D01*
X109439285Y-116028571D01*
X109639285Y-115971429D02*
X110010714Y-115971429D01*
X109810714Y-116200000D01*
X109896428Y-116200000D01*
X109953571Y-116228571D01*
X109982142Y-116257143D01*
X110010714Y-116314286D01*
X110010714Y-116457143D01*
X109982142Y-116514286D01*
X109953571Y-116542857D01*
X109896428Y-116571429D01*
X109725000Y-116571429D01*
X109667857Y-116542857D01*
X109639285Y-116514286D01*
X110525000Y-116171429D02*
X110525000Y-116571429D01*
X110382143Y-115942857D02*
X110239286Y-116371429D01*
X110610714Y-116371429D01*
X111839285Y-116514286D02*
X111810714Y-116542857D01*
X111725000Y-116571429D01*
X111667857Y-116571429D01*
X111582142Y-116542857D01*
X111525000Y-116485714D01*
X111496428Y-116428571D01*
X111467857Y-116314286D01*
X111467857Y-116228571D01*
X111496428Y-116114286D01*
X111525000Y-116057143D01*
X111582142Y-116000000D01*
X111667857Y-115971429D01*
X111725000Y-115971429D01*
X111810714Y-116000000D01*
X111839285Y-116028571D01*
X112039285Y-115971429D02*
X112410714Y-115971429D01*
X112210714Y-116200000D01*
X112296428Y-116200000D01*
X112353571Y-116228571D01*
X112382142Y-116257143D01*
X112410714Y-116314286D01*
X112410714Y-116457143D01*
X112382142Y-116514286D01*
X112353571Y-116542857D01*
X112296428Y-116571429D01*
X112125000Y-116571429D01*
X112067857Y-116542857D01*
X112039285Y-116514286D01*
X112925000Y-115971429D02*
X112810714Y-115971429D01*
X112753571Y-116000000D01*
X112725000Y-116028571D01*
X112667857Y-116114286D01*
X112639286Y-116228571D01*
X112639286Y-116457143D01*
X112667857Y-116514286D01*
X112696429Y-116542857D01*
X112753571Y-116571429D01*
X112867857Y-116571429D01*
X112925000Y-116542857D01*
X112953571Y-116514286D01*
X112982143Y-116457143D01*
X112982143Y-116314286D01*
X112953571Y-116257143D01*
X112925000Y-116228571D01*
X112867857Y-116200000D01*
X112753571Y-116200000D01*
X112696429Y-116228571D01*
X112667857Y-116257143D01*
X112639286Y-116314286D01*
X114864286Y-134335715D02*
X114892857Y-134364286D01*
X114921429Y-134450000D01*
X114921429Y-134507143D01*
X114892857Y-134592858D01*
X114835714Y-134650000D01*
X114778571Y-134678572D01*
X114664286Y-134707143D01*
X114578571Y-134707143D01*
X114464286Y-134678572D01*
X114407143Y-134650000D01*
X114350000Y-134592858D01*
X114321429Y-134507143D01*
X114321429Y-134450000D01*
X114350000Y-134364286D01*
X114378571Y-134335715D01*
X114521429Y-133821429D02*
X114921429Y-133821429D01*
X114292857Y-133964286D02*
X114721429Y-134107143D01*
X114721429Y-133735715D01*
X114921429Y-133192857D02*
X114921429Y-133535714D01*
X114921429Y-133364286D02*
X114321429Y-133364286D01*
X114407143Y-133421429D01*
X114464286Y-133478571D01*
X114492857Y-133535714D01*
X91228571Y-138539286D02*
X91200000Y-138567857D01*
X91114286Y-138596429D01*
X91057143Y-138596429D01*
X90971428Y-138567857D01*
X90914286Y-138510714D01*
X90885714Y-138453571D01*
X90857143Y-138339286D01*
X90857143Y-138253571D01*
X90885714Y-138139286D01*
X90914286Y-138082143D01*
X90971428Y-138025000D01*
X91057143Y-137996429D01*
X91114286Y-137996429D01*
X91200000Y-138025000D01*
X91228571Y-138053571D01*
X91742857Y-138196429D02*
X91742857Y-138596429D01*
X91600000Y-137967857D02*
X91457143Y-138396429D01*
X91828571Y-138396429D01*
X92171429Y-137996429D02*
X92228572Y-137996429D01*
X92285715Y-138025000D01*
X92314286Y-138053571D01*
X92342857Y-138110714D01*
X92371429Y-138225000D01*
X92371429Y-138367857D01*
X92342857Y-138482143D01*
X92314286Y-138539286D01*
X92285715Y-138567857D01*
X92228572Y-138596429D01*
X92171429Y-138596429D01*
X92114286Y-138567857D01*
X92085715Y-138539286D01*
X92057143Y-138482143D01*
X92028572Y-138367857D01*
X92028572Y-138225000D01*
X92057143Y-138110714D01*
X92085715Y-138053571D01*
X92114286Y-138025000D01*
X92171429Y-137996429D01*
X92942858Y-138596429D02*
X92600001Y-138596429D01*
X92771429Y-138596429D02*
X92771429Y-137996429D01*
X92714286Y-138082143D01*
X92657144Y-138139286D01*
X92600001Y-138167857D01*
X118175000Y-109446429D02*
X117975000Y-109160714D01*
X117832143Y-109446429D02*
X117832143Y-108846429D01*
X118060715Y-108846429D01*
X118117857Y-108875000D01*
X118146429Y-108903571D01*
X118175000Y-108960714D01*
X118175000Y-109046429D01*
X118146429Y-109103571D01*
X118117857Y-109132143D01*
X118060715Y-109160714D01*
X117832143Y-109160714D01*
X118746429Y-109446429D02*
X118403572Y-109446429D01*
X118575000Y-109446429D02*
X118575000Y-108846429D01*
X118517857Y-108932143D01*
X118460715Y-108989286D01*
X118403572Y-109017857D01*
X116271429Y-134375000D02*
X115985714Y-134575000D01*
X116271429Y-134717857D02*
X115671429Y-134717857D01*
X115671429Y-134489285D01*
X115700000Y-134432143D01*
X115728571Y-134403571D01*
X115785714Y-134375000D01*
X115871429Y-134375000D01*
X115928571Y-134403571D01*
X115957143Y-134432143D01*
X115985714Y-134489285D01*
X115985714Y-134717857D01*
X115728571Y-134146428D02*
X115700000Y-134117857D01*
X115671429Y-134060714D01*
X115671429Y-133917857D01*
X115700000Y-133860714D01*
X115728571Y-133832143D01*
X115785714Y-133803571D01*
X115842857Y-133803571D01*
X115928571Y-133832143D01*
X116271429Y-134175000D01*
X116271429Y-133803571D01*
X112175000Y-138146429D02*
X111975000Y-137860714D01*
X111832143Y-138146429D02*
X111832143Y-137546429D01*
X112060715Y-137546429D01*
X112117857Y-137575000D01*
X112146429Y-137603571D01*
X112175000Y-137660714D01*
X112175000Y-137746429D01*
X112146429Y-137803571D01*
X112117857Y-137832143D01*
X112060715Y-137860714D01*
X111832143Y-137860714D01*
X112717857Y-137546429D02*
X112432143Y-137546429D01*
X112403572Y-137832143D01*
X112432143Y-137803571D01*
X112489286Y-137775000D01*
X112632143Y-137775000D01*
X112689286Y-137803571D01*
X112717857Y-137832143D01*
X112746429Y-137889286D01*
X112746429Y-138032143D01*
X112717857Y-138089286D01*
X112689286Y-138117857D01*
X112632143Y-138146429D01*
X112489286Y-138146429D01*
X112432143Y-138117857D01*
X112403572Y-138089286D01*
X88771429Y-123785715D02*
X88485714Y-123985715D01*
X88771429Y-124128572D02*
X88171429Y-124128572D01*
X88171429Y-123900000D01*
X88200000Y-123842858D01*
X88228571Y-123814286D01*
X88285714Y-123785715D01*
X88371429Y-123785715D01*
X88428571Y-123814286D01*
X88457143Y-123842858D01*
X88485714Y-123900000D01*
X88485714Y-124128572D01*
X88771429Y-123214286D02*
X88771429Y-123557143D01*
X88771429Y-123385715D02*
X88171429Y-123385715D01*
X88257143Y-123442858D01*
X88314286Y-123500000D01*
X88342857Y-123557143D01*
X88428571Y-122871429D02*
X88400000Y-122928571D01*
X88371429Y-122957143D01*
X88314286Y-122985714D01*
X88285714Y-122985714D01*
X88228571Y-122957143D01*
X88200000Y-122928571D01*
X88171429Y-122871429D01*
X88171429Y-122757143D01*
X88200000Y-122700000D01*
X88228571Y-122671429D01*
X88285714Y-122642857D01*
X88314286Y-122642857D01*
X88371429Y-122671429D01*
X88400000Y-122700000D01*
X88428571Y-122757143D01*
X88428571Y-122871429D01*
X88457143Y-122928571D01*
X88485714Y-122957143D01*
X88542857Y-122985714D01*
X88657143Y-122985714D01*
X88714286Y-122957143D01*
X88742857Y-122928571D01*
X88771429Y-122871429D01*
X88771429Y-122757143D01*
X88742857Y-122700000D01*
X88714286Y-122671429D01*
X88657143Y-122642857D01*
X88542857Y-122642857D01*
X88485714Y-122671429D01*
X88457143Y-122700000D01*
X88428571Y-122757143D01*
X98071429Y-128035715D02*
X97785714Y-128235715D01*
X98071429Y-128378572D02*
X97471429Y-128378572D01*
X97471429Y-128150000D01*
X97500000Y-128092858D01*
X97528571Y-128064286D01*
X97585714Y-128035715D01*
X97671429Y-128035715D01*
X97728571Y-128064286D01*
X97757143Y-128092858D01*
X97785714Y-128150000D01*
X97785714Y-128378572D01*
X97528571Y-127807143D02*
X97500000Y-127778572D01*
X97471429Y-127721429D01*
X97471429Y-127578572D01*
X97500000Y-127521429D01*
X97528571Y-127492858D01*
X97585714Y-127464286D01*
X97642857Y-127464286D01*
X97728571Y-127492858D01*
X98071429Y-127835715D01*
X98071429Y-127464286D01*
X97471429Y-127092857D02*
X97471429Y-127035714D01*
X97500000Y-126978571D01*
X97528571Y-126950000D01*
X97585714Y-126921429D01*
X97700000Y-126892857D01*
X97842857Y-126892857D01*
X97957143Y-126921429D01*
X98014286Y-126950000D01*
X98042857Y-126978571D01*
X98071429Y-127035714D01*
X98071429Y-127092857D01*
X98042857Y-127150000D01*
X98014286Y-127178571D01*
X97957143Y-127207143D01*
X97842857Y-127235714D01*
X97700000Y-127235714D01*
X97585714Y-127207143D01*
X97528571Y-127178571D01*
X97500000Y-127150000D01*
X97471429Y-127092857D01*
X91471429Y-123785715D02*
X91185714Y-123985715D01*
X91471429Y-124128572D02*
X90871429Y-124128572D01*
X90871429Y-123900000D01*
X90900000Y-123842858D01*
X90928571Y-123814286D01*
X90985714Y-123785715D01*
X91071429Y-123785715D01*
X91128571Y-123814286D01*
X91157143Y-123842858D01*
X91185714Y-123900000D01*
X91185714Y-124128572D01*
X90928571Y-123557143D02*
X90900000Y-123528572D01*
X90871429Y-123471429D01*
X90871429Y-123328572D01*
X90900000Y-123271429D01*
X90928571Y-123242858D01*
X90985714Y-123214286D01*
X91042857Y-123214286D01*
X91128571Y-123242858D01*
X91471429Y-123585715D01*
X91471429Y-123214286D01*
X91471429Y-122642857D02*
X91471429Y-122985714D01*
X91471429Y-122814286D02*
X90871429Y-122814286D01*
X90957143Y-122871429D01*
X91014286Y-122928571D01*
X91042857Y-122985714D01*
X117914285Y-90596429D02*
X117714285Y-90310714D01*
X117571428Y-90596429D02*
X117571428Y-89996429D01*
X117800000Y-89996429D01*
X117857142Y-90025000D01*
X117885714Y-90053571D01*
X117914285Y-90110714D01*
X117914285Y-90196429D01*
X117885714Y-90253571D01*
X117857142Y-90282143D01*
X117800000Y-90310714D01*
X117571428Y-90310714D01*
X118142857Y-90053571D02*
X118171428Y-90025000D01*
X118228571Y-89996429D01*
X118371428Y-89996429D01*
X118428571Y-90025000D01*
X118457142Y-90053571D01*
X118485714Y-90110714D01*
X118485714Y-90167857D01*
X118457142Y-90253571D01*
X118114285Y-90596429D01*
X118485714Y-90596429D01*
X118828571Y-90253571D02*
X118771429Y-90225000D01*
X118742857Y-90196429D01*
X118714286Y-90139286D01*
X118714286Y-90110714D01*
X118742857Y-90053571D01*
X118771429Y-90025000D01*
X118828571Y-89996429D01*
X118942857Y-89996429D01*
X119000000Y-90025000D01*
X119028571Y-90053571D01*
X119057143Y-90110714D01*
X119057143Y-90139286D01*
X119028571Y-90196429D01*
X119000000Y-90225000D01*
X118942857Y-90253571D01*
X118828571Y-90253571D01*
X118771429Y-90282143D01*
X118742857Y-90310714D01*
X118714286Y-90367857D01*
X118714286Y-90482143D01*
X118742857Y-90539286D01*
X118771429Y-90567857D01*
X118828571Y-90596429D01*
X118942857Y-90596429D01*
X119000000Y-90567857D01*
X119028571Y-90539286D01*
X119057143Y-90482143D01*
X119057143Y-90367857D01*
X119028571Y-90310714D01*
X119000000Y-90282143D01*
X118942857Y-90253571D01*
X106946429Y-92485715D02*
X106660714Y-92685715D01*
X106946429Y-92828572D02*
X106346429Y-92828572D01*
X106346429Y-92600000D01*
X106375000Y-92542858D01*
X106403571Y-92514286D01*
X106460714Y-92485715D01*
X106546429Y-92485715D01*
X106603571Y-92514286D01*
X106632143Y-92542858D01*
X106660714Y-92600000D01*
X106660714Y-92828572D01*
X106346429Y-92285715D02*
X106346429Y-91914286D01*
X106575000Y-92114286D01*
X106575000Y-92028572D01*
X106603571Y-91971429D01*
X106632143Y-91942858D01*
X106689286Y-91914286D01*
X106832143Y-91914286D01*
X106889286Y-91942858D01*
X106917857Y-91971429D01*
X106946429Y-92028572D01*
X106946429Y-92200000D01*
X106917857Y-92257143D01*
X106889286Y-92285715D01*
X106546429Y-91400000D02*
X106946429Y-91400000D01*
X106317857Y-91542857D02*
X106746429Y-91685714D01*
X106746429Y-91314286D01*
X91914285Y-90596429D02*
X91714285Y-90310714D01*
X91571428Y-90596429D02*
X91571428Y-89996429D01*
X91800000Y-89996429D01*
X91857142Y-90025000D01*
X91885714Y-90053571D01*
X91914285Y-90110714D01*
X91914285Y-90196429D01*
X91885714Y-90253571D01*
X91857142Y-90282143D01*
X91800000Y-90310714D01*
X91571428Y-90310714D01*
X92428571Y-90196429D02*
X92428571Y-90596429D01*
X92285714Y-89967857D02*
X92142857Y-90396429D01*
X92514285Y-90396429D01*
X92714286Y-90053571D02*
X92742857Y-90025000D01*
X92800000Y-89996429D01*
X92942857Y-89996429D01*
X93000000Y-90025000D01*
X93028571Y-90053571D01*
X93057143Y-90110714D01*
X93057143Y-90167857D01*
X93028571Y-90253571D01*
X92685714Y-90596429D01*
X93057143Y-90596429D01*
X106989285Y-113146429D02*
X106789285Y-112860714D01*
X106646428Y-113146429D02*
X106646428Y-112546429D01*
X106875000Y-112546429D01*
X106932142Y-112575000D01*
X106960714Y-112603571D01*
X106989285Y-112660714D01*
X106989285Y-112746429D01*
X106960714Y-112803571D01*
X106932142Y-112832143D01*
X106875000Y-112860714D01*
X106646428Y-112860714D01*
X107503571Y-112746429D02*
X107503571Y-113146429D01*
X107360714Y-112517857D02*
X107217857Y-112946429D01*
X107589285Y-112946429D01*
X107903571Y-112803571D02*
X107846429Y-112775000D01*
X107817857Y-112746429D01*
X107789286Y-112689286D01*
X107789286Y-112660714D01*
X107817857Y-112603571D01*
X107846429Y-112575000D01*
X107903571Y-112546429D01*
X108017857Y-112546429D01*
X108075000Y-112575000D01*
X108103571Y-112603571D01*
X108132143Y-112660714D01*
X108132143Y-112689286D01*
X108103571Y-112746429D01*
X108075000Y-112775000D01*
X108017857Y-112803571D01*
X107903571Y-112803571D01*
X107846429Y-112832143D01*
X107817857Y-112860714D01*
X107789286Y-112917857D01*
X107789286Y-113032143D01*
X107817857Y-113089286D01*
X107846429Y-113117857D01*
X107903571Y-113146429D01*
X108017857Y-113146429D01*
X108075000Y-113117857D01*
X108103571Y-113089286D01*
X108132143Y-113032143D01*
X108132143Y-112917857D01*
X108103571Y-112860714D01*
X108075000Y-112832143D01*
X108017857Y-112803571D01*
X114921429Y-108810715D02*
X114635714Y-109010715D01*
X114921429Y-109153572D02*
X114321429Y-109153572D01*
X114321429Y-108925000D01*
X114350000Y-108867858D01*
X114378571Y-108839286D01*
X114435714Y-108810715D01*
X114521429Y-108810715D01*
X114578571Y-108839286D01*
X114607143Y-108867858D01*
X114635714Y-108925000D01*
X114635714Y-109153572D01*
X114521429Y-108296429D02*
X114921429Y-108296429D01*
X114292857Y-108439286D02*
X114721429Y-108582143D01*
X114721429Y-108210715D01*
X114921429Y-107953571D02*
X114921429Y-107839286D01*
X114892857Y-107782143D01*
X114864286Y-107753571D01*
X114778571Y-107696429D01*
X114664286Y-107667857D01*
X114435714Y-107667857D01*
X114378571Y-107696429D01*
X114350000Y-107725000D01*
X114321429Y-107782143D01*
X114321429Y-107896429D01*
X114350000Y-107953571D01*
X114378571Y-107982143D01*
X114435714Y-108010714D01*
X114578571Y-108010714D01*
X114635714Y-107982143D01*
X114664286Y-107953571D01*
X114692857Y-107896429D01*
X114692857Y-107782143D01*
X114664286Y-107725000D01*
X114635714Y-107696429D01*
X114578571Y-107667857D01*
X115821429Y-108810715D02*
X115535714Y-109010715D01*
X115821429Y-109153572D02*
X115221429Y-109153572D01*
X115221429Y-108925000D01*
X115250000Y-108867858D01*
X115278571Y-108839286D01*
X115335714Y-108810715D01*
X115421429Y-108810715D01*
X115478571Y-108839286D01*
X115507143Y-108867858D01*
X115535714Y-108925000D01*
X115535714Y-109153572D01*
X115221429Y-108267858D02*
X115221429Y-108553572D01*
X115507143Y-108582143D01*
X115478571Y-108553572D01*
X115450000Y-108496429D01*
X115450000Y-108353572D01*
X115478571Y-108296429D01*
X115507143Y-108267858D01*
X115564286Y-108239286D01*
X115707143Y-108239286D01*
X115764286Y-108267858D01*
X115792857Y-108296429D01*
X115821429Y-108353572D01*
X115821429Y-108496429D01*
X115792857Y-108553572D01*
X115764286Y-108582143D01*
X115221429Y-107867857D02*
X115221429Y-107810714D01*
X115250000Y-107753571D01*
X115278571Y-107725000D01*
X115335714Y-107696429D01*
X115450000Y-107667857D01*
X115592857Y-107667857D01*
X115707143Y-107696429D01*
X115764286Y-107725000D01*
X115792857Y-107753571D01*
X115821429Y-107810714D01*
X115821429Y-107867857D01*
X115792857Y-107925000D01*
X115764286Y-107953571D01*
X115707143Y-107982143D01*
X115592857Y-108010714D01*
X115450000Y-108010714D01*
X115335714Y-107982143D01*
X115278571Y-107953571D01*
X115250000Y-107925000D01*
X115221429Y-107867857D01*
X116721429Y-108810715D02*
X116435714Y-109010715D01*
X116721429Y-109153572D02*
X116121429Y-109153572D01*
X116121429Y-108925000D01*
X116150000Y-108867858D01*
X116178571Y-108839286D01*
X116235714Y-108810715D01*
X116321429Y-108810715D01*
X116378571Y-108839286D01*
X116407143Y-108867858D01*
X116435714Y-108925000D01*
X116435714Y-109153572D01*
X116121429Y-108267858D02*
X116121429Y-108553572D01*
X116407143Y-108582143D01*
X116378571Y-108553572D01*
X116350000Y-108496429D01*
X116350000Y-108353572D01*
X116378571Y-108296429D01*
X116407143Y-108267858D01*
X116464286Y-108239286D01*
X116607143Y-108239286D01*
X116664286Y-108267858D01*
X116692857Y-108296429D01*
X116721429Y-108353572D01*
X116721429Y-108496429D01*
X116692857Y-108553572D01*
X116664286Y-108582143D01*
X116721429Y-107667857D02*
X116721429Y-108010714D01*
X116721429Y-107839286D02*
X116121429Y-107839286D01*
X116207143Y-107896429D01*
X116264286Y-107953571D01*
X116292857Y-108010714D01*
X94353571Y-134371429D02*
X94153571Y-134085714D01*
X94010714Y-134371429D02*
X94010714Y-133771429D01*
X94239286Y-133771429D01*
X94296428Y-133800000D01*
X94325000Y-133828571D01*
X94353571Y-133885714D01*
X94353571Y-133971429D01*
X94325000Y-134028571D01*
X94296428Y-134057143D01*
X94239286Y-134085714D01*
X94010714Y-134085714D01*
X94925000Y-134371429D02*
X94582143Y-134371429D01*
X94753571Y-134371429D02*
X94753571Y-133771429D01*
X94696428Y-133857143D01*
X94639286Y-133914286D01*
X94582143Y-133942857D01*
X95296429Y-133771429D02*
X95353572Y-133771429D01*
X95410715Y-133800000D01*
X95439286Y-133828571D01*
X95467857Y-133885714D01*
X95496429Y-134000000D01*
X95496429Y-134142857D01*
X95467857Y-134257143D01*
X95439286Y-134314286D01*
X95410715Y-134342857D01*
X95353572Y-134371429D01*
X95296429Y-134371429D01*
X95239286Y-134342857D01*
X95210715Y-134314286D01*
X95182143Y-134257143D01*
X95153572Y-134142857D01*
X95153572Y-134000000D01*
X95182143Y-133885714D01*
X95210715Y-133828571D01*
X95239286Y-133800000D01*
X95296429Y-133771429D01*
X95696429Y-133771429D02*
X96067858Y-133771429D01*
X95867858Y-134000000D01*
X95953572Y-134000000D01*
X96010715Y-134028571D01*
X96039286Y-134057143D01*
X96067858Y-134114286D01*
X96067858Y-134257143D01*
X96039286Y-134314286D01*
X96010715Y-134342857D01*
X95953572Y-134371429D01*
X95782144Y-134371429D01*
X95725001Y-134342857D01*
X95696429Y-134314286D01*
X94353571Y-130421429D02*
X94153571Y-130135714D01*
X94010714Y-130421429D02*
X94010714Y-129821429D01*
X94239286Y-129821429D01*
X94296428Y-129850000D01*
X94325000Y-129878571D01*
X94353571Y-129935714D01*
X94353571Y-130021429D01*
X94325000Y-130078571D01*
X94296428Y-130107143D01*
X94239286Y-130135714D01*
X94010714Y-130135714D01*
X94925000Y-130421429D02*
X94582143Y-130421429D01*
X94753571Y-130421429D02*
X94753571Y-129821429D01*
X94696428Y-129907143D01*
X94639286Y-129964286D01*
X94582143Y-129992857D01*
X95296429Y-129821429D02*
X95353572Y-129821429D01*
X95410715Y-129850000D01*
X95439286Y-129878571D01*
X95467857Y-129935714D01*
X95496429Y-130050000D01*
X95496429Y-130192857D01*
X95467857Y-130307143D01*
X95439286Y-130364286D01*
X95410715Y-130392857D01*
X95353572Y-130421429D01*
X95296429Y-130421429D01*
X95239286Y-130392857D01*
X95210715Y-130364286D01*
X95182143Y-130307143D01*
X95153572Y-130192857D01*
X95153572Y-130050000D01*
X95182143Y-129935714D01*
X95210715Y-129878571D01*
X95239286Y-129850000D01*
X95296429Y-129821429D01*
X96010715Y-130021429D02*
X96010715Y-130421429D01*
X95867858Y-129792857D02*
X95725001Y-130221429D01*
X96096429Y-130221429D01*
X87553571Y-128796429D02*
X87353571Y-128510714D01*
X87210714Y-128796429D02*
X87210714Y-128196429D01*
X87439286Y-128196429D01*
X87496428Y-128225000D01*
X87525000Y-128253571D01*
X87553571Y-128310714D01*
X87553571Y-128396429D01*
X87525000Y-128453571D01*
X87496428Y-128482143D01*
X87439286Y-128510714D01*
X87210714Y-128510714D01*
X88067857Y-128396429D02*
X88067857Y-128796429D01*
X87925000Y-128167857D02*
X87782143Y-128596429D01*
X88153571Y-128596429D01*
X88496429Y-128196429D02*
X88553572Y-128196429D01*
X88610715Y-128225000D01*
X88639286Y-128253571D01*
X88667857Y-128310714D01*
X88696429Y-128425000D01*
X88696429Y-128567857D01*
X88667857Y-128682143D01*
X88639286Y-128739286D01*
X88610715Y-128767857D01*
X88553572Y-128796429D01*
X88496429Y-128796429D01*
X88439286Y-128767857D01*
X88410715Y-128739286D01*
X88382143Y-128682143D01*
X88353572Y-128567857D01*
X88353572Y-128425000D01*
X88382143Y-128310714D01*
X88410715Y-128253571D01*
X88439286Y-128225000D01*
X88496429Y-128196429D01*
X89267858Y-128796429D02*
X88925001Y-128796429D01*
X89096429Y-128796429D02*
X89096429Y-128196429D01*
X89039286Y-128282143D01*
X88982144Y-128339286D01*
X88925001Y-128367857D01*
X87514285Y-136821429D02*
X87914285Y-137421429D01*
X87914285Y-136821429D02*
X87514285Y-137421429D01*
X88457143Y-137421429D02*
X88114286Y-137421429D01*
X88285714Y-137421429D02*
X88285714Y-136821429D01*
X88228571Y-136907143D01*
X88171429Y-136964286D01*
X88114286Y-136992857D01*
X109500000Y-109764286D02*
X109471429Y-109792857D01*
X109385715Y-109821429D01*
X109328572Y-109821429D01*
X109242857Y-109792857D01*
X109185715Y-109735714D01*
X109157143Y-109678571D01*
X109128572Y-109564286D01*
X109128572Y-109478571D01*
X109157143Y-109364286D01*
X109185715Y-109307143D01*
X109242857Y-109250000D01*
X109328572Y-109221429D01*
X109385715Y-109221429D01*
X109471429Y-109250000D01*
X109500000Y-109278571D01*
X110071429Y-109821429D02*
X109728572Y-109821429D01*
X109900000Y-109821429D02*
X109900000Y-109221429D01*
X109842857Y-109307143D01*
X109785715Y-109364286D01*
X109728572Y-109392857D01*
X103600000Y-109764286D02*
X103571429Y-109792857D01*
X103485715Y-109821429D01*
X103428572Y-109821429D01*
X103342857Y-109792857D01*
X103285715Y-109735714D01*
X103257143Y-109678571D01*
X103228572Y-109564286D01*
X103228572Y-109478571D01*
X103257143Y-109364286D01*
X103285715Y-109307143D01*
X103342857Y-109250000D01*
X103428572Y-109221429D01*
X103485715Y-109221429D01*
X103571429Y-109250000D01*
X103600000Y-109278571D01*
X103942857Y-109478571D02*
X103885715Y-109450000D01*
X103857143Y-109421429D01*
X103828572Y-109364286D01*
X103828572Y-109335714D01*
X103857143Y-109278571D01*
X103885715Y-109250000D01*
X103942857Y-109221429D01*
X104057143Y-109221429D01*
X104114286Y-109250000D01*
X104142857Y-109278571D01*
X104171429Y-109335714D01*
X104171429Y-109364286D01*
X104142857Y-109421429D01*
X104114286Y-109450000D01*
X104057143Y-109478571D01*
X103942857Y-109478571D01*
X103885715Y-109507143D01*
X103857143Y-109535714D01*
X103828572Y-109592857D01*
X103828572Y-109707143D01*
X103857143Y-109764286D01*
X103885715Y-109792857D01*
X103942857Y-109821429D01*
X104057143Y-109821429D01*
X104114286Y-109792857D01*
X104142857Y-109764286D01*
X104171429Y-109707143D01*
X104171429Y-109592857D01*
X104142857Y-109535714D01*
X104114286Y-109507143D01*
X104057143Y-109478571D01*
X106550000Y-109764286D02*
X106521429Y-109792857D01*
X106435715Y-109821429D01*
X106378572Y-109821429D01*
X106292857Y-109792857D01*
X106235715Y-109735714D01*
X106207143Y-109678571D01*
X106178572Y-109564286D01*
X106178572Y-109478571D01*
X106207143Y-109364286D01*
X106235715Y-109307143D01*
X106292857Y-109250000D01*
X106378572Y-109221429D01*
X106435715Y-109221429D01*
X106521429Y-109250000D01*
X106550000Y-109278571D01*
X106835715Y-109821429D02*
X106950000Y-109821429D01*
X107007143Y-109792857D01*
X107035715Y-109764286D01*
X107092857Y-109678571D01*
X107121429Y-109564286D01*
X107121429Y-109335714D01*
X107092857Y-109278571D01*
X107064286Y-109250000D01*
X107007143Y-109221429D01*
X106892857Y-109221429D01*
X106835715Y-109250000D01*
X106807143Y-109278571D01*
X106778572Y-109335714D01*
X106778572Y-109478571D01*
X106807143Y-109535714D01*
X106835715Y-109564286D01*
X106892857Y-109592857D01*
X107007143Y-109592857D01*
X107064286Y-109564286D01*
X107092857Y-109535714D01*
X107121429Y-109478571D01*
X95114285Y-115339286D02*
X95085714Y-115367857D01*
X95000000Y-115396429D01*
X94942857Y-115396429D01*
X94857142Y-115367857D01*
X94800000Y-115310714D01*
X94771428Y-115253571D01*
X94742857Y-115139286D01*
X94742857Y-115053571D01*
X94771428Y-114939286D01*
X94800000Y-114882143D01*
X94857142Y-114825000D01*
X94942857Y-114796429D01*
X95000000Y-114796429D01*
X95085714Y-114825000D01*
X95114285Y-114853571D01*
X95314285Y-114796429D02*
X95685714Y-114796429D01*
X95485714Y-115025000D01*
X95571428Y-115025000D01*
X95628571Y-115053571D01*
X95657142Y-115082143D01*
X95685714Y-115139286D01*
X95685714Y-115282143D01*
X95657142Y-115339286D01*
X95628571Y-115367857D01*
X95571428Y-115396429D01*
X95400000Y-115396429D01*
X95342857Y-115367857D01*
X95314285Y-115339286D01*
X95971429Y-115396429D02*
X96085714Y-115396429D01*
X96142857Y-115367857D01*
X96171429Y-115339286D01*
X96228571Y-115253571D01*
X96257143Y-115139286D01*
X96257143Y-114910714D01*
X96228571Y-114853571D01*
X96200000Y-114825000D01*
X96142857Y-114796429D01*
X96028571Y-114796429D01*
X95971429Y-114825000D01*
X95942857Y-114853571D01*
X95914286Y-114910714D01*
X95914286Y-115053571D01*
X95942857Y-115110714D01*
X95971429Y-115139286D01*
X96028571Y-115167857D01*
X96142857Y-115167857D01*
X96200000Y-115139286D01*
X96228571Y-115110714D01*
X96257143Y-115053571D01*
X112614285Y-121989286D02*
X112585714Y-122017857D01*
X112500000Y-122046429D01*
X112442857Y-122046429D01*
X112357142Y-122017857D01*
X112300000Y-121960714D01*
X112271428Y-121903571D01*
X112242857Y-121789286D01*
X112242857Y-121703571D01*
X112271428Y-121589286D01*
X112300000Y-121532143D01*
X112357142Y-121475000D01*
X112442857Y-121446429D01*
X112500000Y-121446429D01*
X112585714Y-121475000D01*
X112614285Y-121503571D01*
X113128571Y-121646429D02*
X113128571Y-122046429D01*
X112985714Y-121417857D02*
X112842857Y-121846429D01*
X113214285Y-121846429D01*
X113385714Y-121446429D02*
X113757143Y-121446429D01*
X113557143Y-121675000D01*
X113642857Y-121675000D01*
X113700000Y-121703571D01*
X113728571Y-121732143D01*
X113757143Y-121789286D01*
X113757143Y-121932143D01*
X113728571Y-121989286D01*
X113700000Y-122017857D01*
X113642857Y-122046429D01*
X113471429Y-122046429D01*
X113414286Y-122017857D01*
X113385714Y-121989286D01*
X112164285Y-109764286D02*
X112135714Y-109792857D01*
X112050000Y-109821429D01*
X111992857Y-109821429D01*
X111907142Y-109792857D01*
X111850000Y-109735714D01*
X111821428Y-109678571D01*
X111792857Y-109564286D01*
X111792857Y-109478571D01*
X111821428Y-109364286D01*
X111850000Y-109307143D01*
X111907142Y-109250000D01*
X111992857Y-109221429D01*
X112050000Y-109221429D01*
X112135714Y-109250000D01*
X112164285Y-109278571D01*
X112678571Y-109421429D02*
X112678571Y-109821429D01*
X112535714Y-109192857D02*
X112392857Y-109621429D01*
X112764285Y-109621429D01*
X113021429Y-109821429D02*
X113135714Y-109821429D01*
X113192857Y-109792857D01*
X113221429Y-109764286D01*
X113278571Y-109678571D01*
X113307143Y-109564286D01*
X113307143Y-109335714D01*
X113278571Y-109278571D01*
X113250000Y-109250000D01*
X113192857Y-109221429D01*
X113078571Y-109221429D01*
X113021429Y-109250000D01*
X112992857Y-109278571D01*
X112964286Y-109335714D01*
X112964286Y-109478571D01*
X112992857Y-109535714D01*
X113021429Y-109564286D01*
X113078571Y-109592857D01*
X113192857Y-109592857D01*
X113250000Y-109564286D01*
X113278571Y-109535714D01*
X113307143Y-109478571D01*
X113789286Y-127235715D02*
X113817857Y-127264286D01*
X113846429Y-127350000D01*
X113846429Y-127407143D01*
X113817857Y-127492858D01*
X113760714Y-127550000D01*
X113703571Y-127578572D01*
X113589286Y-127607143D01*
X113503571Y-127607143D01*
X113389286Y-127578572D01*
X113332143Y-127550000D01*
X113275000Y-127492858D01*
X113246429Y-127407143D01*
X113246429Y-127350000D01*
X113275000Y-127264286D01*
X113303571Y-127235715D01*
X113303571Y-127007143D02*
X113275000Y-126978572D01*
X113246429Y-126921429D01*
X113246429Y-126778572D01*
X113275000Y-126721429D01*
X113303571Y-126692858D01*
X113360714Y-126664286D01*
X113417857Y-126664286D01*
X113503571Y-126692858D01*
X113846429Y-127035715D01*
X113846429Y-126664286D01*
X113246429Y-126121429D02*
X113246429Y-126407143D01*
X113532143Y-126435714D01*
X113503571Y-126407143D01*
X113475000Y-126350000D01*
X113475000Y-126207143D01*
X113503571Y-126150000D01*
X113532143Y-126121429D01*
X113589286Y-126092857D01*
X113732143Y-126092857D01*
X113789286Y-126121429D01*
X113817857Y-126150000D01*
X113846429Y-126207143D01*
X113846429Y-126350000D01*
X113817857Y-126407143D01*
X113789286Y-126435714D01*
X90539285Y-122039286D02*
X90510714Y-122067857D01*
X90425000Y-122096429D01*
X90367857Y-122096429D01*
X90282142Y-122067857D01*
X90225000Y-122010714D01*
X90196428Y-121953571D01*
X90167857Y-121839286D01*
X90167857Y-121753571D01*
X90196428Y-121639286D01*
X90225000Y-121582143D01*
X90282142Y-121525000D01*
X90367857Y-121496429D01*
X90425000Y-121496429D01*
X90510714Y-121525000D01*
X90539285Y-121553571D01*
X91053571Y-121696429D02*
X91053571Y-122096429D01*
X90910714Y-121467857D02*
X90767857Y-121896429D01*
X91139285Y-121896429D01*
X91625000Y-121496429D02*
X91510714Y-121496429D01*
X91453571Y-121525000D01*
X91425000Y-121553571D01*
X91367857Y-121639286D01*
X91339286Y-121753571D01*
X91339286Y-121982143D01*
X91367857Y-122039286D01*
X91396429Y-122067857D01*
X91453571Y-122096429D01*
X91567857Y-122096429D01*
X91625000Y-122067857D01*
X91653571Y-122039286D01*
X91682143Y-121982143D01*
X91682143Y-121839286D01*
X91653571Y-121782143D01*
X91625000Y-121753571D01*
X91567857Y-121725000D01*
X91453571Y-121725000D01*
X91396429Y-121753571D01*
X91367857Y-121782143D01*
X91339286Y-121839286D01*
X115089286Y-131835715D02*
X115117857Y-131864286D01*
X115146429Y-131950000D01*
X115146429Y-132007143D01*
X115117857Y-132092858D01*
X115060714Y-132150000D01*
X115003571Y-132178572D01*
X114889286Y-132207143D01*
X114803571Y-132207143D01*
X114689286Y-132178572D01*
X114632143Y-132150000D01*
X114575000Y-132092858D01*
X114546429Y-132007143D01*
X114546429Y-131950000D01*
X114575000Y-131864286D01*
X114603571Y-131835715D01*
X114746429Y-131321429D02*
X115146429Y-131321429D01*
X114517857Y-131464286D02*
X114946429Y-131607143D01*
X114946429Y-131235715D01*
X114546429Y-131064286D02*
X114546429Y-130664286D01*
X115146429Y-130921429D01*
X114089286Y-131810715D02*
X114117857Y-131839286D01*
X114146429Y-131925000D01*
X114146429Y-131982143D01*
X114117857Y-132067858D01*
X114060714Y-132125000D01*
X114003571Y-132153572D01*
X113889286Y-132182143D01*
X113803571Y-132182143D01*
X113689286Y-132153572D01*
X113632143Y-132125000D01*
X113575000Y-132067858D01*
X113546429Y-131982143D01*
X113546429Y-131925000D01*
X113575000Y-131839286D01*
X113603571Y-131810715D01*
X113746429Y-131296429D02*
X114146429Y-131296429D01*
X113517857Y-131439286D02*
X113946429Y-131582143D01*
X113946429Y-131210715D01*
X113803571Y-130896429D02*
X113775000Y-130953571D01*
X113746429Y-130982143D01*
X113689286Y-131010714D01*
X113660714Y-131010714D01*
X113603571Y-130982143D01*
X113575000Y-130953571D01*
X113546429Y-130896429D01*
X113546429Y-130782143D01*
X113575000Y-130725000D01*
X113603571Y-130696429D01*
X113660714Y-130667857D01*
X113689286Y-130667857D01*
X113746429Y-130696429D01*
X113775000Y-130725000D01*
X113803571Y-130782143D01*
X113803571Y-130896429D01*
X113832143Y-130953571D01*
X113860714Y-130982143D01*
X113917857Y-131010714D01*
X114032143Y-131010714D01*
X114089286Y-130982143D01*
X114117857Y-130953571D01*
X114146429Y-130896429D01*
X114146429Y-130782143D01*
X114117857Y-130725000D01*
X114089286Y-130696429D01*
X114032143Y-130667857D01*
X113917857Y-130667857D01*
X113860714Y-130696429D01*
X113832143Y-130725000D01*
X113803571Y-130782143D01*
X113089286Y-131810715D02*
X113117857Y-131839286D01*
X113146429Y-131925000D01*
X113146429Y-131982143D01*
X113117857Y-132067858D01*
X113060714Y-132125000D01*
X113003571Y-132153572D01*
X112889286Y-132182143D01*
X112803571Y-132182143D01*
X112689286Y-132153572D01*
X112632143Y-132125000D01*
X112575000Y-132067858D01*
X112546429Y-131982143D01*
X112546429Y-131925000D01*
X112575000Y-131839286D01*
X112603571Y-131810715D01*
X112546429Y-131267858D02*
X112546429Y-131553572D01*
X112832143Y-131582143D01*
X112803571Y-131553572D01*
X112775000Y-131496429D01*
X112775000Y-131353572D01*
X112803571Y-131296429D01*
X112832143Y-131267858D01*
X112889286Y-131239286D01*
X113032143Y-131239286D01*
X113089286Y-131267858D01*
X113117857Y-131296429D01*
X113146429Y-131353572D01*
X113146429Y-131496429D01*
X113117857Y-131553572D01*
X113089286Y-131582143D01*
X112546429Y-130867857D02*
X112546429Y-130810714D01*
X112575000Y-130753571D01*
X112603571Y-130725000D01*
X112660714Y-130696429D01*
X112775000Y-130667857D01*
X112917857Y-130667857D01*
X113032143Y-130696429D01*
X113089286Y-130725000D01*
X113117857Y-130753571D01*
X113146429Y-130810714D01*
X113146429Y-130867857D01*
X113117857Y-130925000D01*
X113089286Y-130953571D01*
X113032143Y-130982143D01*
X112917857Y-131010714D01*
X112775000Y-131010714D01*
X112660714Y-130982143D01*
X112603571Y-130953571D01*
X112575000Y-130925000D01*
X112546429Y-130867857D01*
X114746429Y-127325000D02*
X114746429Y-127610714D01*
X114146429Y-127610714D01*
X114203571Y-127153571D02*
X114175000Y-127125000D01*
X114146429Y-127067857D01*
X114146429Y-126925000D01*
X114175000Y-126867857D01*
X114203571Y-126839286D01*
X114260714Y-126810714D01*
X114317857Y-126810714D01*
X114403571Y-126839286D01*
X114746429Y-127182143D01*
X114746429Y-126810714D01*
X95942857Y-120346429D02*
X95942857Y-120832143D01*
X95971429Y-120889286D01*
X96000000Y-120917857D01*
X96057143Y-120946429D01*
X96171429Y-120946429D01*
X96228571Y-120917857D01*
X96257143Y-120889286D01*
X96285714Y-120832143D01*
X96285714Y-120346429D01*
X96514285Y-120346429D02*
X96885714Y-120346429D01*
X96685714Y-120575000D01*
X96771428Y-120575000D01*
X96828571Y-120603571D01*
X96857142Y-120632143D01*
X96885714Y-120689286D01*
X96885714Y-120832143D01*
X96857142Y-120889286D01*
X96828571Y-120917857D01*
X96771428Y-120946429D01*
X96600000Y-120946429D01*
X96542857Y-120917857D01*
X96514285Y-120889286D01*
X82017857Y-94778571D02*
X81960714Y-94750000D01*
X81903571Y-94692857D01*
X81817857Y-94607143D01*
X81760714Y-94578571D01*
X81703571Y-94578571D01*
X81732143Y-94721429D02*
X81675000Y-94692857D01*
X81617857Y-94635714D01*
X81589286Y-94521429D01*
X81589286Y-94321429D01*
X81617857Y-94207143D01*
X81675000Y-94150000D01*
X81732143Y-94121429D01*
X81846429Y-94121429D01*
X81903571Y-94150000D01*
X81960714Y-94207143D01*
X81989286Y-94321429D01*
X81989286Y-94521429D01*
X81960714Y-94635714D01*
X81903571Y-94692857D01*
X81846429Y-94721429D01*
X81732143Y-94721429D01*
X82532142Y-94121429D02*
X82246428Y-94121429D01*
X82217857Y-94407143D01*
X82246428Y-94378571D01*
X82303571Y-94350000D01*
X82446428Y-94350000D01*
X82503571Y-94378571D01*
X82532142Y-94407143D01*
X82560714Y-94464286D01*
X82560714Y-94607143D01*
X82532142Y-94664286D01*
X82503571Y-94692857D01*
X82446428Y-94721429D01*
X82303571Y-94721429D01*
X82246428Y-94692857D01*
X82217857Y-94664286D01*
X95017857Y-94778571D02*
X94960714Y-94750000D01*
X94903571Y-94692857D01*
X94817857Y-94607143D01*
X94760714Y-94578571D01*
X94703571Y-94578571D01*
X94732143Y-94721429D02*
X94675000Y-94692857D01*
X94617857Y-94635714D01*
X94589286Y-94521429D01*
X94589286Y-94321429D01*
X94617857Y-94207143D01*
X94675000Y-94150000D01*
X94732143Y-94121429D01*
X94846429Y-94121429D01*
X94903571Y-94150000D01*
X94960714Y-94207143D01*
X94989286Y-94321429D01*
X94989286Y-94521429D01*
X94960714Y-94635714D01*
X94903571Y-94692857D01*
X94846429Y-94721429D01*
X94732143Y-94721429D01*
X95189285Y-94121429D02*
X95560714Y-94121429D01*
X95360714Y-94350000D01*
X95446428Y-94350000D01*
X95503571Y-94378571D01*
X95532142Y-94407143D01*
X95560714Y-94464286D01*
X95560714Y-94607143D01*
X95532142Y-94664286D01*
X95503571Y-94692857D01*
X95446428Y-94721429D01*
X95275000Y-94721429D01*
X95217857Y-94692857D01*
X95189285Y-94664286D01*
X108017857Y-94778571D02*
X107960714Y-94750000D01*
X107903571Y-94692857D01*
X107817857Y-94607143D01*
X107760714Y-94578571D01*
X107703571Y-94578571D01*
X107732143Y-94721429D02*
X107675000Y-94692857D01*
X107617857Y-94635714D01*
X107589286Y-94521429D01*
X107589286Y-94321429D01*
X107617857Y-94207143D01*
X107675000Y-94150000D01*
X107732143Y-94121429D01*
X107846429Y-94121429D01*
X107903571Y-94150000D01*
X107960714Y-94207143D01*
X107989286Y-94321429D01*
X107989286Y-94521429D01*
X107960714Y-94635714D01*
X107903571Y-94692857D01*
X107846429Y-94721429D01*
X107732143Y-94721429D01*
X108560714Y-94721429D02*
X108217857Y-94721429D01*
X108389285Y-94721429D02*
X108389285Y-94121429D01*
X108332142Y-94207143D01*
X108275000Y-94264286D01*
X108217857Y-94292857D01*
X86700000Y-114996429D02*
X86414286Y-114996429D01*
X86414286Y-114396429D01*
X87214286Y-114996429D02*
X86871429Y-114996429D01*
X87042857Y-114996429D02*
X87042857Y-114396429D01*
X86985714Y-114482143D01*
X86928572Y-114539286D01*
X86871429Y-114567857D01*
M02*
