G04 #@! TF.FileFunction,Soldermask,Top*
%FSLAX46Y46*%
G04 Gerber Fmt 4.6, Leading zero omitted, Abs format (unit mm)*
G04 Created by KiCad (PCBNEW (2015-12-03 BZR 6346, Git b04f18b)-product) date 07.01.2016 00:01:23*
%MOMM*%
G01*
G04 APERTURE LIST*
%ADD10C,0.150000*%
%ADD11R,1.300000X1.300000*%
%ADD12C,1.300000*%
%ADD13R,1.143000X0.635000*%
%ADD14R,0.300000X1.300480*%
%ADD15R,1.300480X0.300000*%
%ADD16R,1.699260X1.198880*%
%ADD17O,1.699260X1.198880*%
%ADD18R,0.635000X1.143000*%
%ADD19R,0.599440X1.399540*%
%ADD20C,4.500000*%
%ADD21R,2.032000X1.727200*%
%ADD22O,2.032000X1.727200*%
%ADD23R,5.000000X4.000000*%
%ADD24O,1.524000X3.048000*%
%ADD25R,1.849120X5.499100*%
%ADD26R,1.500000X0.500000*%
%ADD27R,2.200000X2.400000*%
%ADD28R,2.200000X2.000000*%
%ADD29C,1.000000*%
%ADD30R,2.692400X1.600200*%
%ADD31R,1.600200X2.692400*%
%ADD32R,0.300000X1.550000*%
%ADD33R,7.000000X3.590000*%
%ADD34R,10.800000X9.400000*%
%ADD35R,0.800000X4.600000*%
%ADD36R,5.800000X2.000000*%
%ADD37C,0.254000*%
%ADD38C,0.200000*%
G04 APERTURE END LIST*
D10*
D11*
X93250000Y-142275000D03*
D12*
X89250000Y-142275000D03*
X91250000Y-142275000D03*
X87250000Y-142275000D03*
X85250000Y-142275000D03*
X83250000Y-142275000D03*
D11*
X116700000Y-123870000D03*
D12*
X116700000Y-119870000D03*
X116700000Y-121870000D03*
X116700000Y-117870000D03*
X116700000Y-115870000D03*
X116700000Y-113870000D03*
X116700000Y-111870000D03*
D13*
X90650000Y-124913000D03*
X90650000Y-126437000D03*
D14*
X101350000Y-142350560D03*
X101850000Y-142350560D03*
X102350000Y-142350560D03*
X102850000Y-142350560D03*
X103350000Y-142350560D03*
X99850000Y-142350560D03*
X100350000Y-142350560D03*
X100850000Y-142350560D03*
D15*
X109350560Y-140350000D03*
X109350560Y-139850000D03*
X109350560Y-139350000D03*
X109350560Y-138850000D03*
X109350560Y-138350000D03*
X109350560Y-137850000D03*
X109350560Y-137350000D03*
X109350560Y-136850000D03*
D14*
X107350000Y-130849440D03*
X106850000Y-130849440D03*
X106350000Y-130849440D03*
X105850000Y-130849440D03*
X105350000Y-130849440D03*
X104850000Y-130849440D03*
X104350000Y-130849440D03*
X103850000Y-130849440D03*
D15*
X97849440Y-132850000D03*
X97849440Y-133350000D03*
X97849440Y-133850000D03*
X97849440Y-134350000D03*
X97849440Y-134850000D03*
X97849440Y-135350000D03*
X97849440Y-135850000D03*
X97849440Y-136350000D03*
D14*
X103850000Y-142350560D03*
X104350000Y-142350560D03*
X104850000Y-142350560D03*
D15*
X109350560Y-136350000D03*
X109350560Y-135850000D03*
X109350560Y-135350000D03*
D14*
X103350000Y-130849440D03*
X102850000Y-130849440D03*
X102350000Y-130849440D03*
D15*
X97849440Y-136850000D03*
X97849440Y-137350000D03*
X97849440Y-137850000D03*
D14*
X105350000Y-142350560D03*
X105850000Y-142350560D03*
X106350000Y-142350560D03*
X106850000Y-142350560D03*
X107350000Y-142350560D03*
D15*
X109350560Y-134850000D03*
X109350560Y-134350000D03*
X109350560Y-133850000D03*
X109350560Y-133350000D03*
X109350560Y-132850000D03*
D14*
X101850000Y-130849440D03*
X101350000Y-130849440D03*
X100850000Y-130849440D03*
X100350000Y-130849440D03*
X99850000Y-130849440D03*
D15*
X97849440Y-138350000D03*
X97849440Y-138850000D03*
X97849440Y-139350000D03*
X97849440Y-139850000D03*
X97849440Y-140350000D03*
D16*
X84250000Y-118725000D03*
D17*
X84250000Y-122725000D03*
X84250000Y-120725000D03*
X84250000Y-124725000D03*
D18*
X100187000Y-129275000D03*
X98663000Y-129275000D03*
D19*
X88870000Y-130108000D03*
X88870000Y-135442000D03*
X90140000Y-130108000D03*
X91410000Y-130108000D03*
X92680000Y-130108000D03*
X90140000Y-135442000D03*
X91410000Y-135442000D03*
X92680000Y-135442000D03*
D18*
X94588000Y-127575000D03*
X96112000Y-127575000D03*
D20*
X106225000Y-87800000D03*
D21*
X118175000Y-137840000D03*
D22*
X118175000Y-135300000D03*
X118175000Y-132760000D03*
X118175000Y-130220000D03*
X118175000Y-127680000D03*
D23*
X113000000Y-87800000D03*
D24*
X113095000Y-141650000D03*
X115635000Y-141650000D03*
X118175000Y-141650000D03*
D25*
X96725560Y-110050000D03*
X91574440Y-110050000D03*
D23*
X100000000Y-87800000D03*
X87000000Y-87800000D03*
D13*
X115600000Y-139412000D03*
X115600000Y-137888000D03*
X110975000Y-140562000D03*
X110975000Y-139038000D03*
D10*
G36*
X107882567Y-130865790D02*
X108690790Y-130057567D01*
X109139803Y-130506580D01*
X108331580Y-131314803D01*
X107882567Y-130865790D01*
X107882567Y-130865790D01*
G37*
G36*
X108960197Y-131943420D02*
X109768420Y-131135197D01*
X110217433Y-131584210D01*
X109409210Y-132392433D01*
X108960197Y-131943420D01*
X108960197Y-131943420D01*
G37*
D18*
X96938000Y-130775000D03*
X98462000Y-130775000D03*
D13*
X96225000Y-140038000D03*
X96225000Y-141562000D03*
X111075000Y-133162000D03*
X111075000Y-131638000D03*
X103075000Y-127188000D03*
X103075000Y-128712000D03*
X94850000Y-124913000D03*
X94850000Y-126437000D03*
X108475000Y-128987000D03*
X108475000Y-127463000D03*
X93450000Y-124913000D03*
X93450000Y-126437000D03*
X104925000Y-128712000D03*
X104925000Y-127188000D03*
X112250000Y-125138000D03*
X112250000Y-126662000D03*
D10*
G36*
X100109210Y-114007567D02*
X100917433Y-114815790D01*
X100468420Y-115264803D01*
X99660197Y-114456580D01*
X100109210Y-114007567D01*
X100109210Y-114007567D01*
G37*
G36*
X99031580Y-115085197D02*
X99839803Y-115893420D01*
X99390790Y-116342433D01*
X98582567Y-115534210D01*
X99031580Y-115085197D01*
X99031580Y-115085197D01*
G37*
D18*
X102987000Y-115000000D03*
X101463000Y-115000000D03*
X105562000Y-115000000D03*
X104038000Y-115000000D03*
X108137000Y-115000000D03*
X106613000Y-115000000D03*
X109063000Y-115000000D03*
X110587000Y-115000000D03*
X112987000Y-115000000D03*
X111463000Y-115000000D03*
D13*
X114650000Y-135463000D03*
X114650000Y-136987000D03*
D18*
X91412000Y-137025000D03*
X89888000Y-137025000D03*
X119037000Y-107875000D03*
X117513000Y-107875000D03*
D13*
X116000000Y-135463000D03*
X116000000Y-136987000D03*
D18*
X114487000Y-139150000D03*
X112963000Y-139150000D03*
D13*
X92050000Y-126437000D03*
X92050000Y-124913000D03*
D18*
X100337000Y-127825000D03*
X98813000Y-127825000D03*
D13*
X96250000Y-124913000D03*
X96250000Y-126437000D03*
X118300000Y-91338000D03*
X118300000Y-92862000D03*
X105300000Y-91338000D03*
X105300000Y-92862000D03*
X92300000Y-91338000D03*
X92300000Y-92862000D03*
X109125000Y-112363000D03*
X109125000Y-113887000D03*
X110475000Y-112363000D03*
X110475000Y-113887000D03*
X111825000Y-112363000D03*
X111825000Y-113887000D03*
X113175000Y-112363000D03*
X113175000Y-113887000D03*
D18*
X95787000Y-132775000D03*
X94263000Y-132775000D03*
X95787000Y-131425000D03*
X94263000Y-131425000D03*
X90013000Y-128525000D03*
X91537000Y-128525000D03*
D26*
X86750000Y-134700000D03*
X86750000Y-133900000D03*
X86750000Y-133100000D03*
X86750000Y-132300000D03*
X86750000Y-131500000D03*
D27*
X85550000Y-128550000D03*
X85550000Y-137650000D03*
D28*
X82475000Y-128750000D03*
X82475000Y-137450000D03*
D29*
X85250000Y-131100000D03*
X85250000Y-135100000D03*
D30*
X109600000Y-110947000D03*
X109600000Y-108153000D03*
X103700000Y-110947000D03*
X103700000Y-108153000D03*
X106650000Y-110947000D03*
X106650000Y-108153000D03*
X95500000Y-119272000D03*
X95500000Y-116478000D03*
X113000000Y-117578000D03*
X113000000Y-120372000D03*
X112550000Y-108153000D03*
X112550000Y-110947000D03*
D13*
X109825000Y-129012000D03*
X109825000Y-127488000D03*
D31*
X92753000Y-122750000D03*
X95547000Y-122750000D03*
D13*
X115225000Y-129912000D03*
X115225000Y-128388000D03*
X113875000Y-129912000D03*
X113875000Y-128388000D03*
X112525000Y-129912000D03*
X112525000Y-128388000D03*
X111175000Y-129037000D03*
X111175000Y-127513000D03*
D20*
X94725000Y-87800000D03*
D32*
X106500000Y-117600000D03*
X106000000Y-117600000D03*
X105500000Y-117600000D03*
X105000000Y-117600000D03*
X104500000Y-117600000D03*
X104000000Y-117600000D03*
X103500000Y-117600000D03*
X103000000Y-117600000D03*
X102500000Y-117600000D03*
X102000000Y-117600000D03*
X101500000Y-117600000D03*
X111000000Y-117600000D03*
X110500000Y-117600000D03*
X110000000Y-117600000D03*
X105500000Y-125600000D03*
X109000000Y-117600000D03*
X108500000Y-117600000D03*
X108000000Y-117600000D03*
X107500000Y-117600000D03*
X107000000Y-117600000D03*
X103000000Y-125600000D03*
X103500000Y-125600000D03*
X104000000Y-125600000D03*
X104500000Y-125600000D03*
X105000000Y-125600000D03*
X109500000Y-117600000D03*
X106000000Y-125600000D03*
X106500000Y-125600000D03*
X107000000Y-125600000D03*
X107500000Y-125600000D03*
X108000000Y-125600000D03*
X108500000Y-125600000D03*
X109000000Y-125600000D03*
X97500000Y-125600000D03*
X98000000Y-125600000D03*
X98500000Y-125600000D03*
X99000000Y-125600000D03*
X99500000Y-125600000D03*
X100000000Y-125600000D03*
X100500000Y-125600000D03*
X101000000Y-125600000D03*
X101500000Y-125600000D03*
X102000000Y-125600000D03*
X102500000Y-125600000D03*
X109500000Y-125600000D03*
X110000000Y-125600000D03*
X110500000Y-125600000D03*
X111000000Y-125600000D03*
X101000000Y-117600000D03*
X100500000Y-117600000D03*
X100000000Y-117600000D03*
X99500000Y-117600000D03*
X99000000Y-117600000D03*
X98500000Y-117600000D03*
X98000000Y-117600000D03*
X97500000Y-117600000D03*
D33*
X104250000Y-121600000D03*
D34*
X87000000Y-101850000D03*
D35*
X90810000Y-92700000D03*
X89540000Y-92700000D03*
X88270000Y-92700000D03*
X85730000Y-92700000D03*
X84460000Y-92700000D03*
X83190000Y-92700000D03*
D34*
X100000000Y-101850000D03*
D35*
X103810000Y-92700000D03*
X102540000Y-92700000D03*
X101270000Y-92700000D03*
X98730000Y-92700000D03*
X97460000Y-92700000D03*
X96190000Y-92700000D03*
D34*
X113000000Y-101850000D03*
D35*
X116810000Y-92700000D03*
X115540000Y-92700000D03*
X114270000Y-92700000D03*
X111730000Y-92700000D03*
X110460000Y-92700000D03*
X109190000Y-92700000D03*
D36*
X90650000Y-115000000D03*
X90650000Y-119800000D03*
D37*
G36*
X89823000Y-92548000D02*
X82902000Y-92548000D01*
X82902000Y-90402606D01*
X84139803Y-89164803D01*
X84167666Y-89122789D01*
X84177000Y-89075000D01*
X84177000Y-85877000D01*
X89823000Y-85877000D01*
X89823000Y-92548000D01*
X89823000Y-92548000D01*
G37*
X89823000Y-92548000D02*
X82902000Y-92548000D01*
X82902000Y-90402606D01*
X84139803Y-89164803D01*
X84167666Y-89122789D01*
X84177000Y-89075000D01*
X84177000Y-85877000D01*
X89823000Y-85877000D01*
X89823000Y-92548000D01*
G36*
X118573000Y-106973000D02*
X113900000Y-106973000D01*
X113850590Y-106983006D01*
X113808965Y-107011447D01*
X113781685Y-107053841D01*
X113773000Y-107100000D01*
X113773000Y-107423000D01*
X102477000Y-107423000D01*
X102477000Y-107100000D01*
X102466994Y-107050590D01*
X102438553Y-107008965D01*
X102396159Y-106981685D01*
X102350000Y-106973000D01*
X92700000Y-106973000D01*
X92650590Y-106983006D01*
X92610197Y-107010197D01*
X92385197Y-107235197D01*
X92357334Y-107277211D01*
X92348000Y-107325000D01*
X92348000Y-112648000D01*
X91850000Y-112648000D01*
X91800590Y-112658006D01*
X91760197Y-112685197D01*
X90772394Y-113673000D01*
X87750000Y-113673000D01*
X87700590Y-113683006D01*
X87660197Y-113710197D01*
X87460197Y-113910197D01*
X87432334Y-113952211D01*
X87423000Y-114000000D01*
X87423000Y-114073000D01*
X81427000Y-114073000D01*
X81427000Y-95877000D01*
X118573000Y-95877000D01*
X118573000Y-106973000D01*
X118573000Y-106973000D01*
G37*
X118573000Y-106973000D02*
X113900000Y-106973000D01*
X113850590Y-106983006D01*
X113808965Y-107011447D01*
X113781685Y-107053841D01*
X113773000Y-107100000D01*
X113773000Y-107423000D01*
X102477000Y-107423000D01*
X102477000Y-107100000D01*
X102466994Y-107050590D01*
X102438553Y-107008965D01*
X102396159Y-106981685D01*
X102350000Y-106973000D01*
X92700000Y-106973000D01*
X92650590Y-106983006D01*
X92610197Y-107010197D01*
X92385197Y-107235197D01*
X92357334Y-107277211D01*
X92348000Y-107325000D01*
X92348000Y-112648000D01*
X91850000Y-112648000D01*
X91800590Y-112658006D01*
X91760197Y-112685197D01*
X90772394Y-113673000D01*
X87750000Y-113673000D01*
X87700590Y-113683006D01*
X87660197Y-113710197D01*
X87460197Y-113910197D01*
X87432334Y-113952211D01*
X87423000Y-114000000D01*
X87423000Y-114073000D01*
X81427000Y-114073000D01*
X81427000Y-95877000D01*
X118573000Y-95877000D01*
X118573000Y-106973000D01*
G36*
X102823000Y-92548000D02*
X95902000Y-92548000D01*
X95902000Y-90402606D01*
X97139803Y-89164803D01*
X97167666Y-89122789D01*
X97177000Y-89075000D01*
X97177000Y-85877000D01*
X102823000Y-85877000D01*
X102823000Y-92548000D01*
X102823000Y-92548000D01*
G37*
X102823000Y-92548000D02*
X95902000Y-92548000D01*
X95902000Y-90402606D01*
X97139803Y-89164803D01*
X97167666Y-89122789D01*
X97177000Y-89075000D01*
X97177000Y-85877000D01*
X102823000Y-85877000D01*
X102823000Y-92548000D01*
G36*
X115823000Y-92548000D02*
X108902000Y-92548000D01*
X108902000Y-90402606D01*
X110139803Y-89164803D01*
X110167666Y-89122789D01*
X110177000Y-89075000D01*
X110177000Y-85877000D01*
X115823000Y-85877000D01*
X115823000Y-92548000D01*
X115823000Y-92548000D01*
G37*
X115823000Y-92548000D02*
X108902000Y-92548000D01*
X108902000Y-90402606D01*
X110139803Y-89164803D01*
X110167666Y-89122789D01*
X110177000Y-89075000D01*
X110177000Y-85877000D01*
X115823000Y-85877000D01*
X115823000Y-92548000D01*
D38*
G36*
X101900000Y-109575000D02*
X101907879Y-109613906D01*
X101929289Y-109645711D01*
X102504289Y-110220711D01*
X102537371Y-110242650D01*
X102575000Y-110250000D01*
X113800000Y-110250000D01*
X113800000Y-111700000D01*
X108425000Y-111700000D01*
X108386094Y-111707879D01*
X108354289Y-111729289D01*
X107708578Y-112375000D01*
X97650000Y-112375000D01*
X97650000Y-107725000D01*
X101900000Y-107725000D01*
X101900000Y-109575000D01*
X101900000Y-109575000D01*
G37*
X101900000Y-109575000D02*
X101907879Y-109613906D01*
X101929289Y-109645711D01*
X102504289Y-110220711D01*
X102537371Y-110242650D01*
X102575000Y-110250000D01*
X113800000Y-110250000D01*
X113800000Y-111700000D01*
X108425000Y-111700000D01*
X108386094Y-111707879D01*
X108354289Y-111729289D01*
X107708578Y-112375000D01*
X97650000Y-112375000D01*
X97650000Y-107725000D01*
X101900000Y-107725000D01*
X101900000Y-109575000D01*
M02*
